<svg style="position: absolute; width: 0; height: 0; overflow: hidden;" version="1.1" xmlns="http://www.w3.org/2000/svg" xmlns:xlink="http://www.w3.org/1999/xlink">
<defs>
<symbol id="icon-behance" viewBox="0 0 37 32">
<path class="path1" d="M33 6.054h-9.125v2.214h9.125v-2.214zM28.5 13.661q-1.607 0-2.607 0.938t-1.107 2.545h7.286q-0.321-3.482-3.571-3.482zM28.786 24.107q1.125 0 2.179-0.571t1.357-1.554h3.946q-1.786 5.482-7.625 5.482-3.821 0-6.080-2.357t-2.259-6.196q0-3.714 2.33-6.17t6.009-2.455q2.464 0 4.295 1.214t2.732 3.196 0.902 4.429q0 0.304-0.036 0.839h-11.75q0 1.982 1.027 3.063t2.973 1.080zM4.946 23.214h5.286q3.661 0 3.661-2.982 0-3.214-3.554-3.214h-5.393v6.196zM4.946 13.625h5.018q1.393 0 2.205-0.652t0.813-2.027q0-2.571-3.393-2.571h-4.643v5.25zM0 4.536h10.607q1.554 0 2.768 0.25t2.259 0.848 1.607 1.723 0.563 2.75q0 3.232-3.071 4.696 2.036 0.571 3.071 2.054t1.036 3.643q0 1.339-0.438 2.438t-1.179 1.848-1.759 1.268-2.161 0.75-2.393 0.232h-10.911v-22.5z"></path>
</symbol>
<symbol id="icon-workana" viewBox="0 0 32 32">
   <g transform="translate(0,-265)">
  <circle cx="108.86" transform="matrix(.13036 0 0 .13036 2.2122 261.02)" stroke="#fff" cy="151.86" r="93.738" stroke-width="34.099" fill="none"/>
 </g>
</symbol>
<symbol id="icon-upwork" viewBox="0 0 35 30">
<g transform="translate(0,-5)">
  <g fill="#fff" transform="matrix(.54043 0 0 .54043 -104.22 32.471)">
   <path d="m839.86-0.46443c0-0.19836 2.9437-13.632 6.5416-29.853 3.5978-16.221 7.472-33.694 8.6091-38.829l2.0676-9.3373-4.0719-5.3862c-5.8764-7.7731-7.6505-10.532-11.68-18.167l-3.5978-6.8166-0.23895 1.7433c-0.13142 0.95883-0.23895 4.458-0.23895 7.7759 0 6.8337-0.61827 11.264-2.2845 16.37-4.5499 13.943-14.229 24.963-27.722 31.562-9.9705 4.8764-17.094 6.0431-28.34 4.6413-11.804-1.4714-19.379-4.6554-27.758-11.667-7.8833-6.5967-13.818-15.682-17.484-26.769l-1.4661-4.4329-0.21927-31.497c-0.1206-17.323-0.3197-35.37-0.44245-40.103l-0.22317-8.6062 13.725-0.22911c7.5486-0.126 13.8-0.1536 13.892-0.0613 0.0923 0.0923 0.27878 17.319 0.41445 38.282l0.24667 38.114 1.0499 2.5494c2.2643 5.498 7.0535 11.325 11.482 13.971 1.1395 0.68076 3.3022 1.6774 4.806 2.2147 2.4441 0.87332 3.2677 0.976 7.7661 0.96823 4.4487-0.0077 5.387-0.1254 8.094-1.0153 3.4479-1.1335 7.8454-3.8826 9.9672-6.2312 2.1167-2.3429 4.1526-5.6948 5.4958-9.0482l1.216-3.0358 0.24105-19.196c0.13257-10.558 0.2617-27.793 0.28693-38.3l0.0459-19.103 9.3186-0.0857c5.1253-0.0472 11.179-0.0891 13.453-0.0932l4.1342-0.007 2.8908 8.2004c5.3822 15.268 7.7398 20.784 13.148 30.765 4.8944 9.0326 10.533 18.745 10.965 18.885 0.17887 0.0583 0.98633-1.6961 1.7944-3.8986 2.0065-5.4693 6.855-15.007 9.2175-18.133 6.1291-8.1081 20.996-17.027 32.37-19.42 10.405-2.1888 23.545 0.0733 35.617 6.1313 6.1622 3.0924 8.4203 4.7984 12.471 9.4218 7.7531 8.8484 13.111 19.584 14.717 29.49 1.1065 6.8222 0.52962 15.792-1.4548 22.621-3.4698 11.941-11.307 23.354-19.989 29.11-3.6648 2.4297-10.283 5.919-11.227 5.919-0.35644 0-0.73998 0.14872-0.85232 0.33049s-0.79318 0.44097-1.513 0.57601c-0.7198 0.13503-1.3087 0.40566-1.3087 0.60137 0 0.19572-0.54514 0.3618-1.2114 0.36907-0.66628 0.0073-1.6308 0.25292-2.1433 0.54591-0.51252 0.29299-1.6112 0.53865-2.4415 0.54591-0.83029 0.0073-1.669 0.15939-1.8637 0.33804-0.59537 0.54616-11.596 1.2545-15.227 0.98044-9.2748-0.7-19.321-3.7647-27.461-8.377-1.4572-0.82577-2.7647-1.5014-2.9054-1.5014-0.14071 0-3.0191 12.514-6.3965 27.81-5.3765 24.349-6.2334 27.845-6.8862 28.094-1.151 0.43839-27.397 0.70035-27.397 0.27345zm80.69-72.578c0.12671-0.20501 0.94323-0.37275 1.8145-0.37275 0.87126 0 1.9097-0.24627 2.3077-0.54727 0.39796-0.30099 1.1643-0.5526 1.703-0.55912 0.53867-0.0065 1.1882-0.26346 1.4434-0.57097 0.25522-0.30752 0.77896-0.55912 1.1639-0.55912 0.38492 0 0.69985-0.16774 0.69985-0.37275s0.25687-0.37275 0.57082-0.37275 0.66737-0.2516 0.78537-0.55912c0.11801-0.30752 0.52806-0.55912 0.91123-0.55912 0.9003 0 7.1261-6.2607 7.9478-7.9924 0.34615-0.72946 0.78923-1.3263 0.98462-1.3263s0.35526-0.4014 0.35526-0.89198c0-0.49059 0.2516-0.98853 0.55912-1.1065 0.30752-0.118 0.55912-0.62926 0.55912-1.1361 0-0.50686 0.16774-1.0252 0.37275-1.1519s0.37377-0.68175 0.37504-1.2334c0.001-0.55168 0.25286-1.4835 0.55912-2.0707 0.79028-1.5153 0.77907-11.281-0.0142-12.329-0.30099-0.39795-0.54726-1.1848-0.54726-1.7486 0-0.56375-0.16774-1.1287-0.37275-1.2554s-0.37275-0.64507-0.37275-1.1519c0-0.50686-0.2516-1.0181-0.55911-1.1361-0.30752-0.11801-0.55912-0.598-0.55912-1.0667 0-0.46866-0.25161-0.94865-0.55912-1.0667-0.30752-0.11801-0.55912-0.4312-0.55912-0.69599 0-0.2648-0.41934-0.93368-0.93187-1.4864-0.51252-0.55274-0.93186-1.0962-0.93186-1.2076 0.00001-0.36749-4.4648-4.6756-4.8457-4.6756-0.20501 0-0.37274-0.12959-0.37274-0.28798s-0.62901-0.61801-1.3978-1.0214c-0.76879-0.40336-1.5319-0.94471-1.6959-1.203-0.16394-0.2583-0.70909-0.46963-1.2114-0.46963-0.50234 0-0.91335-0.16013-0.91335-0.35586 0-0.19571-0.58893-0.46633-1.3087-0.60137-0.7198-0.13503-1.4006-0.39424-1.513-0.57601-0.11234-0.18177-0.91711-0.33049-1.7884-0.33049-0.87126 0-1.9097-0.24627-2.3077-0.54726-1.0167-0.76902-7.1914-0.78688-8.2004-0.0237-0.39795 0.30099-1.5203 0.55259-2.4941 0.55912-0.9738 0.007-1.7705 0.16092-1.7705 0.34311 0 0.1822-0.58708 0.4414-1.3046 0.57601-0.71753 0.13461-1.3046 0.40489-1.3046 0.6006 0 0.19573-0.31493 0.35586-0.69985 0.35586s-0.90866 0.25161-1.1639 0.55912c-0.25521 0.30752-0.6232 0.55912-0.81775 0.55912s-0.57887 0.20967-0.85404 0.46593c-0.27516 0.25627-1.0475 0.88527-1.7163 1.3978-1.3296 1.0189-1.6489 1.3257-2.7622 2.6541-1.953 2.3303-3.1683 4.0137-3.1683 4.3886 0 0.22676-0.16454 0.41229-0.36564 0.41229-0.20111 0-0.47089 0.41934-0.59953 0.93187-0.12864 0.51252-0.38344 0.93186-0.56622 0.93186-0.18279 0-0.33234 0.31494-0.33234 0.69986 0 0.38491-0.2516 0.90866-0.55912 1.1639-0.30751 0.25522-0.55912 0.84229-0.55912 1.3046 0 0.46232-0.2516 1.0494-0.55912 1.3046-0.30751 0.25521-0.55912 0.84365-0.55912 1.3076 0 0.46399-0.25057 1.3241-0.55682 1.9113-0.30625 0.58721-0.55785 1.4352-0.55912 1.8843-0.001 0.44918-0.17003 0.92035-0.37504 1.0471-0.20501 0.1267-0.37869 0.93334-0.38596 1.7925-0.007 0.85919-0.25292 1.9815-0.54591 2.494-0.29298 0.51253-0.53864 1.7985-0.5459 2.8577-0.008 1.1102-0.19495 1.9864-0.44231 2.0689-0.236 0.07867-0.50863 1.1022-0.60585 2.2744-0.0972 1.1723-0.32346 2.2221-0.50277 2.3329-0.17931 0.11082-0.32602 0.91486-0.32602 1.7868 0 1.3244 0.18156 1.7195 1.1032 2.4008 0.60673 0.44857 1.2011 0.81559 1.3209 0.81559 0.11975 0 0.66997 0.41934 1.2227 0.93186 0.55273 0.51253 1.208 0.93187 1.4562 0.93187 0.24817 0 0.58536 0.21133 0.7493 0.46963 0.16395 0.2583 0.92709 0.79964 1.6959 1.203 0.76879 0.40336 1.3978 0.86297 1.3978 1.0214 0 0.15839 0.31493 0.28798 0.69985 0.28798s0.90867 0.2516 1.1639 0.55912c0.25522 0.30752 0.84488 0.55912 1.3104 0.55912 0.46549 0 0.9429 0.2516 1.0609 0.55912 0.11801 0.30752 0.54539 0.55912 0.94975 0.55912 0.40435 0 0.83886 0.16774 0.96556 0.37275s0.60775 0.37275 1.069 0.37275c0.46124 0 1.1642 0.24627 1.5622 0.54727 0.39795 0.30099 1.2807 0.5526 1.9616 0.55912 0.68092 0.0065 1.4896 0.26346 1.7972 0.57097 0.36999 0.36998 1.2992 0.55912 2.747 0.55912 1.2033 0 2.2915 0.16774 2.4182 0.37275 0.12964 0.20977 1.9224 0.37275 4.1002 0.37275s3.9706-0.16298 4.1002-0.37275zm-186.35-15.529c-0.35322-1.4074-0.69729-0.77074-0.37054 0.68563 0.15278 0.68094 0.35285 1.0212 0.44461 0.75615 0.0918-0.26506 0.0584-0.91386-0.0741-1.4418zm125.91-27.912c-0.1214-0.31636-0.30067-0.49525-0.39837-0.39755s-0.0671 0.35655 0.068 0.5752c0.36755 0.5947 0.58238 0.47917 0.33033-0.17765zm-1.1182-1.8637c-0.1214-0.31636-0.30066-0.49526-0.39837-0.39755-0.0977 0.0977-0.0671 0.35655 0.0681 0.5752 0.36754 0.5947 0.58237 0.47917 0.33032-0.17765zm-1.7067-3.0082c-0.24412-0.53578-0.50798-0.78174-0.58637-0.54659-0.0784 0.23516 0.0616 0.67352 0.31111 0.97414 0.67607 0.81463 0.77279 0.66441 0.27526-0.42755zm-124.22-47.418c-0.10408-0.10408-0.27038-0.1081-0.36955-0.009-0.0992 0.0992-0.0572 10.569 0.0932 23.266l0.2735 23.085 0.0961-23.076c0.0528-12.692 0.0109-23.161-0.0932-23.266zm122.86 45.158c-0.43941-0.75564-0.54552-0.51378-0.18583 0.42356 0.12783 0.33313 0.31094 0.52716 0.40692 0.43119 0.096-0.096-0.003-0.48061-0.22109-0.85475z" transform="scale(.26458)" stroke-width=".37275"/>
   <g stroke-width=".26458">
    <path d="m226.46-32.852c0.0339 0.06791 0.0634 0.1378 0.0956 0.20648 0.0261 0.06116 0.0576 0.11982 0.083 0.18125 0.0122 0.02751 0.0223 0.05583 0.0357 0.0828 0 0-0.14829 0.08452-0.14829 0.08452-0.014-0.02734-0.023-0.05652-0.0354-0.08468-0.0241-0.06177-0.0562-0.11997-0.0803-0.18176-0.0313-0.06827-0.0607-0.13774-0.0994-0.20225 0 0 0.14902-0.08637 0.14902-0.08637z"/>
    <path d="m226.26-33c0.0648 0.12226 0.13806 0.23995 0.21013 0.35811 0.08 0.13475 0.1583 0.27047 0.22648 0.41161 0.0332 0.06546 0.0719 0.128 0.10085 0.19557 0.0208 0.06405 0.049 0.12522 0.0734 0.18789 0.0283 0.07316 0.0616 0.14484 0.10432 0.21074 0.003 0.0027 0.0124 0.0061 0.009 0.0082-0.0488 0.02971-0.0986 0.0589-0.15206 0.07899-0.006 0.0024-0.004-0.01307-0.007-0.01937-0.004-0.0091-0.008-0.01794-0.0125-0.02675-0.0207-0.04158-0.0206-0.03956-0.0457-0.08159-0.0441-0.07968-0.0965-0.15424-0.14781-0.22935l0.14278-0.08375c0.0504 0.07594 0.10264 0.15093 0.14818 0.22995 0.0223 0.03549 0.045 0.07078 0.0641 0.10817 0.003 0.0062 0.0143 0.01447 0.009 0.01884-0.045 0.03661-0.0956 0.06629-0.14684 0.0934-0.004 0.0021-0.005-0.0078-0.008-0.01175-0.04-0.06867-0.075-0.1403-0.10456-0.21408-0.0244-0.06238-0.0539-0.12286-0.0746-0.18666-0.028-0.06773-0.0648-0.13132-0.0958-0.19767-0.0639-0.14258-0.14053-0.27882-0.22073-0.4128-0.0724-0.11783-0.14741-0.23401-0.22012-0.35155l0.14704-0.08616z"/>
    <path d="m226.41-32.853c0.045 0.06318 0.0887 0.12662 0.13893 0.18593 0.0504 0.0591 0.10817 0.11133 0.15665 0.17207 0.0306 0.04368 0.0592 0.08912 0.0837 0.13651 0.0176 0.04496 0.0334 0.09072 0.0492 0.1364 0.0168 0.05108 0.0308 0.10303 0.0433 0.15532 0.0147 0.06137 0.0391 0.11968 0.0555 0.18064 0.0105 0.04997 0.0334 0.09594 0.0464 0.14506 0.008 0.03393 0.0175 0.06742 0.0282 0.10055 0.0108 0.04184 0.0337 0.0785 0.0481 0.11906 0.0302 0.07663 0.0761 0.14531 0.12426 0.2116 0.0384 0.04917 0.0634 0.10617 0.087 0.16338 0.0256 0.06393 0.0589 0.12417 0.0931 0.1838 0.0341 0.04975 0.0595 0.10453 0.0902 0.15619 0.003 0.0036 0.005 0.0082 0.009 0.0109 0.001 0.000794 0.003-0.0011 0.005-0.0016-0.0492 0.02553-0.0984 0.05104-0.14763 0.07656l0.16034-0.06564c-0.10649 0.05773-0.12974 0.13388-0.17368 0.0648-0.0283-0.05302-0.0549-0.10695-0.0877-0.15745-0.0347-0.06014-0.0697-0.12035-0.095-0.18527-0.023-0.0559-0.0492-0.11106-0.0843-0.16047-0.0482-0.06811-0.0933-0.13848-0.12762-0.21478-0.0159-0.04009-0.0397-0.07663-0.0504-0.11864-0.0109-0.03347-0.0213-0.06719-0.0282-0.10173-0.0124-0.04937-0.0338-0.09607-0.0443-0.14606-0.0161-0.0611-0.0414-0.11909-0.0565-0.18036-0.0133-0.05151-0.0257-0.1033-0.0427-0.15377-0.0165-0.04465-0.032-0.08961-0.0486-0.13419-0.0239-0.04638-0.0512-0.09131-0.0806-0.1344-0.0483-0.0603-0.10435-0.11382-0.15379-0.17324-0.0499-0.05904-0.0952-0.12144-0.14355-0.18149l0.14647-0.08976z"/>
    <path d="m227.04-31.631c0.0686 0.06818 0.14329 0.1299 0.21299 0.19711 0.0604 0.05777 0.11132 0.1238 0.15679 0.19368 0.0291 0.04016 0.0474 0.08626 0.0704 0.12967 0.0279 0.04068 0.0513 0.08378 0.0689 0.1298 0.0214 0.04961 0.0407 0.09957 0.0544 0.15184 0.014 0.04966 0.0331 0.0978 0.0516 0.14596 0.0177 0.04948 0.036 0.09781 0.0637 0.14252 0.0284 0.03646 0.0136 0.01855 0.0445 0.05373 0 0-0.14393 0.08691-0.14393 0.08691-0.0318-0.03634-0.0163-0.01783-0.0464-0.05556-0.0108-0.01627-0.023-0.03308-0.031-0.05107-0.0135-0.03029-0.0214-0.06349-0.0352-0.09377-0.0198-0.04842-0.0372-0.09795-0.0519-0.14816-0.0133-0.05174-0.0335-0.10062-0.0547-0.14955-0.0172-0.04533-0.0394-0.08831-0.0671-0.12819-0.0236-0.04269-0.0419-0.08834-0.0693-0.12898-0.043-0.0697-0.092-0.13543-0.15104-0.19249-0.0702-0.06784-0.14491-0.13015-0.21869-0.19396l0.14603-0.08949z"/>
    <path d="m227.41-31.057c0.0473 0.05202 0.09 0.10751 0.13136 0.16436 0.0441 0.05658 0.0793 0.11917 0.1208 0.17751 0.0185 0.02582 0.034 0.05361 0.0484 0.08182l-0.14834 0.0845c-0.0137-0.02768-0.0284-0.05491-0.0459-0.08043-0.0406-0.05877-0.0749-0.1217-0.11834-0.17854-0.0419-0.05661-0.0856-0.11141-0.13569-0.16096 0 0 0.14766-0.08826 0.14766-0.08826z"/>
    <path d="m193.98-22.976c0.00053-0.0194 0.00079-0.0388 0.001-0.0582l0.61247-0.31207c0.00053 0.01898 0.00079 0.03797 0.001 0.05695l-0.61492 0.31332z"/>
    <path d="m194.52-23.955c-0.018 0.27235 0.006 0.54324 0.0601 0.81l-0.59212 0.31727c-0.0575-0.2684-0.08-0.54078-0.0803-0.81527l0.61234-0.312z"/>
    <path d="m193.82-32.382c0.006-0.16087 0.005-0.3219 0.005-0.48285-0.00053-0.12744-0.002-0.25488-0.004-0.38232-0.004-0.08512 0.001-0.16886 0.014-0.25295 0.022-0.08204 0.0363-0.16587 0.0602-0.24736 0.0307-0.09972 0.0736-0.19494 0.1182-0.28905 0.0606-0.11633 0.0874-0.24485 0.11881-0.37106 0.004-0.01635 0.008-0.03263 0.0111-0.04903 0.006-0.02789 0.008-0.04384 0.0128-0.06987 0.0181-0.10709 0.19538-0.09892 0.3007-0.12544 0.0195-0.0049-0.0154 0.03708-0.023 0.05563-0.0509 0.14973-0.0698 0.30731-0.0997 0.46195-0.0244 0.13148-0.17597 0.51858-0.38074 0.28817-0.044-0.07636-0.0511-0.16506-0.0582-0.25104-0.005-0.08832-0.005-0.1769-0.006-0.26536-0.002-0.07994-0.001-0.1593 0.009-0.23861 0.0122-0.09661 0.0324-0.19178 0.0451-0.28831 0.0269-0.14144 0.0361-0.28498 0.0505-0.42793 0.0199-0.10195 0.0496-0.202 0.0819-0.30066l0.30797-0.14417c-0.0355 0.09667-0.0643 0.19613-0.0898 0.29585-0.0153 0.14231-0.0199 0.28578-0.0467 0.42676-0.011 0.09652-0.0298 0.19152-0.0425 0.28772-0.0118 0.07793-0.0129 0.1555-0.0115 0.2343-0.00053 0.08781-0.001 0.17568 0.004 0.2634 0.005 0.07699 0.009 0.15888 0.0491 0.22706 0.10614 0.06484 0.02 0.0074-0.27292 0.17863-0.005 0.0029 0.009-0.0072 0.012-0.01204 0.0238-0.03801 0.0295-0.08523 0.0444-0.12658 0.0334-0.15511 0.0565-0.31231 0.0971-0.46586 0.0505-0.17214 0.002-0.05629 0.3397-0.22989 0.002-0.0011 0.00025 0.0052-0.00053 0.0077-0.0106 0.04017-0.0198 0.08054-0.0286 0.12132-0.0331 0.12741-0.0594 0.25784-0.11667 0.37729-0.0439 0.09273-0.0858 0.18637-0.11823 0.28384-0.0263 0.07938-0.0348 0.16253-0.0609 0.24205-0.0132 0.08277-0.0232 0.16465-0.0175 0.24882-0.001 0.12868-0.003 0.25735-0.004 0.38603 0.00006 0.15918-0.001 0.31843 0.005 0.47752l-0.30681 0.15633z"/>
    <path d="m193.85-34.753c0.002-0.09543 0.002-0.19092 0.002-0.28637-0.00003-0.09184-0.001-0.18368-0.0008-0.27552-0.00024-0.08567 0.00015-0.17133 0.00001-0.25699 0.001-0.07738-0.004-0.15498 0.003-0.23214 0.0112-0.0823 0.0283-0.16383 0.0509-0.24374 0.0236-0.06693 0.0379-0.13597 0.0451-0.20644 0.005-0.05996 0.005-0.12022 0.006-0.18037-0.004-0.14814 0.003-0.07522 0.31564-0.18371 0.007-0.0024 0.0195 0.11175 0.0211 0.12259 0.0154 0.10764 0.0312 0.21516 0.0476 0.32267 0.0172 0.10736 0.0207 0.21608 0.0225 0.32457 0.002 0.10831 0.002 0.21664 0.002 0.32496 0.00021 0.06417 0.001 0.03166-0.004 0.09755l-0.30444 0.15182c0.006-0.06322 0.005-0.03154 0.005-0.09506 0.00053-0.10832 0.001-0.21664-0.00026-0.32496-0.002-0.10708-0.006-0.21438-0.0208-0.32057-0.0156-0.10733-0.0334-0.21423-0.0486-0.32162-0.005-0.02972-0.0199-0.10817-0.0194-0.10856 0.0955-0.06417 0.19859-0.11618 0.2977-0.17458 0.003-0.0016-0.007 0.0011-0.008 0.004-0.002 0.008-0.00027 0.01677-0.00053 0.02516 0.00016 0.06113 0.001 0.12239-0.004 0.18339-0.008 0.0724-0.0179 0.14452-0.0436 0.21314-0.0257 0.07724-0.0409 0.15746-0.053 0.23784-0.0112 0.07567-0.002 0.15286-0.006 0.22914-0.00014 0.08566 0.00025 0.17133 0 0.25699 0.00027 0.09214-0.00079 0.18428-0.00079 0.27642 0.00015 0.09468 0.00009 0.1894 0.002 0.28406l-0.30681 0.15633z"/>
    <path d="m193.82-34.226c0.002-0.07976 0.002-0.15957 0.002-0.23936 0.003-0.09363-0.003-0.1875 0.004-0.28094 0.0169-0.08498 0.0495-0.16608 0.0787-0.2475 0.0338-0.07639 0.0699-0.15176 0.0956-0.23133 0.0134-0.05302 0.008-0.02655 0.0177-0.07941l0.30708-0.14964c-0.009 0.0553-0.004 0.02757-0.0163 0.08317-0.0231 0.08099-0.0567 0.15809-0.0947 0.23324-0.0305 0.07864-0.0571 0.15906-0.0823 0.23951-0.0115 0.09195-0.003 0.18532-0.005 0.27779-0.00017 0.07927-0.00079 0.15857 0.002 0.23781l-0.30746 0.15666z"/>
    <path d="m193.78-36.006c-0.0138-0.10409-0.0209-0.20888-0.0253-0.31373-0.009-0.10297-0.0245-0.20513-0.0335-0.30808-0.005-0.0836-0.007-0.16738-0.007-0.25112-0.00027-0.07869 0.00025-0.15737 0.00021-0.23606-0.00053-0.07598 0.00027-0.15197-0.00013-0.22795-0.001-0.06981-0.002-0.13903 0.008-0.20813 0.002-0.05945 0.0304-0.12483 0.0198-0.18455 0.10386-0.0468 0.20393-0.10313 0.31158-0.1404 0.0103-0.0035-0.00001 0.02172-0.00017 0.03259-0.00027 0.01786-0.0008 0.03569-0.001 0.05354-0.001 0.0698-0.001 0.1396-0.001 0.2094 0.00026 0.11294 0.001 0.22587 0.002 0.33881 0.00011 0.09782-0.00079 0.19562-0.00053 0.29344 0.001 0.09008 0.00022 0.18015 0.00013 0.27023 0.00053 0.08691 0.00053 0.17383 0.00027 0.26074-0.0106 0.08752 0.0212 0.16382 0.0488 0.24459 0.0279 0.08709 0.0588 0.17272 0.0767 0.26258 0.01 0.05067 0.008 0.10228 0.0171 0.15302l-0.3029 0.16071c-0.008-0.05074-0.008-0.10205-0.0158-0.15292-0.0156-0.08884-0.045-0.1733-0.0728-0.25889-0.0298-0.08362-0.0664-0.16291-0.0551-0.2542-0.00004-0.08704-0.00008-0.17408 0.00027-0.26112-0.00009-0.09012-0.001-0.18024 0.00013-0.27036 0.00052-0.09771-0.00053-0.1954-0.00027-0.2931 0.00079-0.11361 0.002-0.22721 0.002-0.34082 0.00006-0.06924 0.00015-0.13849-0.002-0.20771-0.00053-0.01714-0.001-0.03427-0.002-0.05141-0.00053-0.0099-0.01-0.02421-0.002-0.02956 0.0987-0.06364 0.20625-0.11254 0.30937-0.16881-0.0151 0.01363-0.0152 0.15472-0.0256 0.18375-0.0123 0.06752-0.0132 0.13456-0.0114 0.2032-0.00053 0.07607 0.00027 0.15215-0.00026 0.22822-0.0002 0.07858 0.00009 0.15716-0.00001 0.23574 0.00007 0.0831 0.00014 0.16626 0.005 0.24923 0.007 0.10381 0.0204 0.20696 0.0319 0.31035 0.004 0.10281 0.009 0.20612 0.0283 0.30744l-0.30414 0.16135z"/>
    <path d="m193.82-37.792c0.0308-0.08467 0.0462-0.17356 0.0564-0.26274 0.0108-0.09196 0.006-0.1847 0.0127-0.27681 0.009-0.08539 0.028-0.16939 0.0502-0.25221 0.0245-0.07914 0.0383-0.16058 0.0454-0.24294 0.0112-0.0951 0.0319-0.18857 0.0491-0.28266 0.0265-0.15583 0.021-0.10556 0.32075-0.20904 0.008-0.0027 0.006 0.16395 0.006 0.17259 0.00079 0.14345 0.005 0.28666-0.007 0.42972-0.0108 0.09784-0.0181 0.19595-0.0218 0.2943 0.003 0.08145-0.0129 0.16129-0.0232 0.24167-0.0246 0.10772-0.0293 0.21858-0.0504 0.32668-0.0122 0.03905-0.0192 0.06978-0.0397 0.10534-0.0126 0.0218-0.0413 0.05887-0.0641 0.07239-0.32198 0.19121-0.206 0.18405-0.36826 0.18554-0.0876-0.02151-0.13004-0.1007-0.1576-0.17968-0.0226-0.07811-0.0223-0.15972-0.0233-0.24027 0.00002-0.07424-0.00053-0.1485 0.00026-0.22274 0.00053-0.07153 0.00053-0.14306 0.00053-0.21458-0.004-0.08123-0.002-0.15804 0.0226-0.236 0.0533-0.11347 0.11723-0.22154 0.17599-0.33218 0.0826-0.18659 0.0391-0.16002 0.36153-0.25314 0.0148-0.0043-0.002 0.03073-0.004 0.04602-0.002 0.01921-0.005 0.03828-0.008 0.05742-0.009 0.12897-0.0446 0.25284-0.0726 0.37832-0.0181 0.10514-0.0373 0.21017-0.0515 0.31595-0.0105 0.08226-0.0134 0.16521-0.0148 0.24804-0.00053 0.08411-0.00027 0.16822-0.0008 0.25233 0.00012 0.01416 0.00025 0.02833 0.00027 0.04249 0.0001 0.01323-0.00027 0.02649 0.00026 0.03971 0.00053 0.01206 0.001 0.02424 0.004 0.03608 0.00053 0.0024 0.007 0.004 0.005 0.005-0.31512 0.15651-0.36084 0.23252-0.28567 0.12041 0.0424-0.09347 0.0577-0.19536 0.0688-0.29649 0.0228-0.2687-0.0684-0.14212 0.31544-0.31142-0.007 0.1184 0.007 0.23663 0.0163 0.35453 0.0124 0.05864-0.007 0.24102 0.0434 0.27634-0.098 0.04571-0.18962 0.10876-0.29395 0.13712-0.0201 0.0055 0.0105-0.04045 0.014-0.06102 0.006-0.03283 0.01-0.06593 0.0136-0.09901 0.0138-0.11575 0.0213-0.23198 0.0289-0.34825 0.009-0.16339 0.0115-0.32706 0.0115-0.49069 0.0001-0.09321-0.00001-0.18642-0.00053-0.27962-0.00012-0.08532-0.00024-0.17065-0.00053-0.25598-0.00053-0.16831-0.0438-0.08434 0.30623-0.20526 0.0107-0.0037-0.001 0.02267-0.001 0.03401-0.00026 0.014-0.00053 0.02799-0.00053 0.04198-0.004 0.10298 0.003 0.20625-0.004 0.30908-0.0323 0.15558-0.0892 0.13538-0.32212 0.24118-0.0197 0.0089-0.0365-0.09552-0.0373-0.10057-0.0178-0.06057 0.008-0.19817-0.0144-0.24913-0.002-0.0041-0.009-0.0013-0.0132-0.0019 0.0941-0.04593 0.1839-0.10181 0.28221-0.13779 0.0177-0.0065-0.0237 0.02959-0.0323 0.04633-0.0116 0.02244-0.0201 0.04641-0.0279 0.07043-0.0281 0.08636-0.0411 0.17613-0.0545 0.26558-0.003 0.02553-0.006 0.05101-0.009 0.07657-0.003 0.02955-0.006 0.06637-0.008 0.09695-0.00027 0.0066 0.005 0.01654-0.0008 0.01979-0.31526 0.17806-0.28182 0.26618-0.31802 0.12408-0.0149-0.08952-0.0189-0.18051-0.0225-0.27107-0.003-0.09092-0.002-0.18192-0.002-0.27288-0.00053-0.09785 0.00079-0.19569 0.00079-0.29353-0.001-0.08549 0.00027-0.17102-0.001-0.2565-0.006-0.14418-0.0618-0.07012 0.31408-0.16692 0.004-0.0011 0.0128 0.16113 0.0135 0.17411 0.007 0.12638 0.006 0.25307 0.0122 0.37945 0.024 0.11704 0.014 0.05074-0.30045 0.14213-0.0168 0.0049 0.013-0.03248 0.0188-0.04899 0.0268-0.07643 0.0473-0.154 0.0665-0.23261 0.0335-0.15496 0.0442-0.31341 0.0502-0.47144 0.002-0.17098-0.0309-0.13382 0.30523-0.19997 0.0183-0.0036-0.0008 0.03729-0.001 0.05593-0.002 0.09838-0.001 0.05255-0.002 0.15608-0.00001 0.02681-0.00027 0.05361-0.00004 0.08042 0.00019 0.02037 0.00053 0.04075 0.001 0.06111 0.00027 0.01196 0.0008 0.02389 0.002 0.03582 0.00026 0.0036 0.005 0.009 0.002 0.01058-0.32002 0.15937-0.31332 0.25412-0.30726 0.10656 0.001-0.04995 0.002-0.09994 0.0008-0.1499-0.004-0.14683-0.0805-0.0011 0.30528-0.16828 0.002 0.03344 0.004-0.0021 0.003-0.0016-0.0971 0.04566-0.18783 0.10431-0.28586 0.1479-0.0109 0.0048 0.0143-0.01908 0.0198-0.0296 0.0167-0.03184 0.0214-0.05702 0.0311-0.09204 0.0244-0.12315 0.029-0.24904 0.0416-0.37377 0.002-0.02207 0.004-0.04412 0.006-0.0662 0.002-0.02011 0.004-0.04022 0.005-0.06035 0.00079-0.01114 0.002-0.02228 0.002-0.03344 0.00012-0.0037-0.004-0.0094-0.00052-0.01109 0.32078-0.16073 0.30603-0.25893 0.31424-0.1159 0.00012 0.07087-0.00023 0.14174 0.00001 0.21262l-0.30161 0.15378c-0.00012-0.06946-0.00012-0.13896-0.004-0.20834-0.009-0.13903-0.008-0.02064 0.30655-0.18792 0.003-0.0013-0.006 0.0024-0.007 0.0052-0.004 0.01103-0.005 0.02281-0.007 0.03438-0.003 0.02027-0.004 0.04069-0.006 0.06103-0.002 0.0222-0.005 0.04436-0.007 0.06654-0.0127 0.12557-0.016 0.25209-0.0371 0.37666-0.003 0.01447-0.0256 0.12638-0.0389 0.13517-0.008 0.0052-0.29955 0.30417-0.34232 0.14341 0.38417-0.22495 0.2973-0.26725 0.30624 0.0061 0.007 0.15056 0.012 0.03993-0.30704 0.2062-0.004 0.0019 0.002-0.0083 0.002-0.01244 0.001-0.01257 0.002-0.02516 0.002-0.03776 0.00079-0.02085 0.001-0.04171 0.002-0.06257 0.00026-0.02684 0.00016-0.05368 0.00024-0.08052-0.00053-0.08982-0.00013-0.06835-0.002-0.15392-0.00026-0.01818-0.0153-0.04298-0.001-0.0545 0.35895-0.2943 0.30606-0.28795 0.30016-0.10729-0.006 0.16043-0.0209 0.32065-0.0503 0.47863-0.0174 0.07848-0.0391 0.15487-0.06 0.23244-0.004 0.01656 0.002 0.04042-0.0126 0.04989-0.10057 0.06672-0.21134 0.1168-0.31949 0.17038-0.004 0.0019 0.001-0.0087 0.002-0.01296 0.003-0.12669-0.00052-0.25361-0.007-0.38015-0.003-0.04113-0.0185-0.16325-0.0172-0.16418 0.0953-0.06756 0.20534-0.11146 0.30559-0.17135 0.003-0.0019-0.008-0.0082-0.0104-0.005-0.004 0.0064-0.00053 0.01524-0.001 0.02286-0.002 0.08594-0.00018 0.17192-0.001 0.25787-0.00027 0.09769 0.00079 0.19536 0.00024 0.29305-0.00027 0.09058 0.00016 0.18114 0.002 0.27171 0.002 0.088 0.005 0.17665 0.0219 0.26328 0.0313 0.13083 0.0147 0.03341-0.29407 0.19247-0.006 0.0032 0.003-0.01376 0.004-0.02069 0.004-0.02566 0.0106-0.0785 0.0133-0.1004 0.003-0.02606 0.007-0.05213 0.01-0.07819 0.0177-0.11622 0.0352-0.23219 0.0733-0.3438 0.007-0.01963 0.004-0.04695 0.0216-0.05839 0.10331-0.06821 0.21912-0.11526 0.32868-0.17289 0.008 0.009 0.0194 0.01593 0.0239 0.02712 0.0213 0.05279-0.005 0.18557 0.0146 0.24734 0.002 0.01109 0.004 0.0222 0.005 0.0333 0.002 0.0066 0.004 0.01299 0.006 0.01969 0.00026 0.0019-0.001-0.0062-0.003-0.0052-0.0953 0.05599-0.18712 0.11783-0.28289 0.17303-0.0161 0.0093 0.0652-0.06356 0.026-0.04922 0.0134-0.10119 0.003-0.2042 0.005-0.30601-0.00022-0.01379-0.00027-0.02756-0.00053-0.04133-0.00027-0.01093-0.0103-0.02664-0.001-0.03274 0.36495-0.24588 0.30552-0.27709 0.30627-0.10683-0.00023 0.08541-0.00026 0.17082-0.00007 0.25624-0.0001 0.09361 0.00053 0.18722-0.001 0.28083-0.004 0.16584-0.0115 0.33155-0.0205 0.49718-0.009 0.14864-0.023 0.29681-0.0333 0.44534-0.002 0.02249 0.0143 0.05359-0.003 0.06751-0.0956 0.0751-0.2104 0.122-0.31559 0.183-0.054-0.08803-0.0352-0.20055-0.0462-0.29865-0.008-0.1176-0.0233-0.23475-0.0248-0.35269 0.39407-0.22502 0.31418-0.28794 0.30458-0.1421-0.003 0.04854-0.003 0.0972-0.008 0.1456-0.0109 0.10281-0.0247 0.2062-0.0606 0.30379-0.0371 0.14429-0.005 0.04986-0.32775 0.19476-0.006 0.0026-0.006-0.01164-0.007-0.01788-0.008-0.04048-0.004-0.08136-0.005-0.12227-0.00053-0.08415-0.001-0.16829-0.00023-0.25244 0.0008-0.08428 0.003-0.16866 0.0141-0.25232 0.0146-0.10682 0.0339-0.21296 0.0518-0.31923 0.027-0.12482 0.0683-0.2466 0.0736-0.37526 0.002-0.01384 0.01-0.09127 0.0102-0.09162 0.38961-0.25784 0.33184-0.23845 0.25177-0.04751-0.056 0.11014-0.11956 0.2164-0.17593 0.32644-0.0306 0.08283-0.0275 0.13844-0.0254 0.225-0.00006 0.07154-0.00017 0.14308-0.00026 0.21463-0.00002 0.07429-0.002 0.14858-0.002 0.22287 0.00053 0.07708 0.00001 0.1552 0.0186 0.23053 0.0211 0.06525 0.0545 0.13858 0.13307 0.14022 0.12635-0.03028 0.0489-0.01503-0.22303 0.14558-0.013 0.0077 0.026-0.01548 0.0376-0.02511 0.0418-0.03475 0.0622-0.08091 0.0777-0.13195 0.025-0.10613 0.0233-0.21656 0.0498-0.32274 0.008-0.07982 0.0258-0.15854 0.0238-0.23911 0.004-0.09943 0.0116-0.19873 0.0241-0.29748 0.015-0.14203 0.0137-0.28431 0.0102-0.42702-0.003-0.09799-0.00079-0.03832-0.005-0.1234-0.00053-0.0096-0.009-0.02347-0.001-0.02871 0.40178-0.26313 0.32065-0.26099 0.28532-0.11352-0.0167 0.09284-0.0359 0.18521-0.0488 0.27872-0.006 0.08448-0.0187 0.16785-0.0429 0.24928-0.0248 0.0804-0.0412 0.16356-0.0531 0.24678-0.0112 0.09192-0.003 0.18495-0.0123 0.27712-0.01 0.09056-0.0253 0.18035-0.0507 0.26797l-0.31147 0.14628z"/>
    <path d="m193.75-39.665c0.002-0.08655 0.002-0.17314 0.002-0.25971-0.00026-0.09223-0.00053-0.18445-0.00053-0.27667-0.006-0.08549 0.01-0.16933 0.0203-0.25368 0.0124-0.11059 0.0273-0.22106 0.0435-0.33118l0.3038-0.14896c-0.0177 0.10895-0.0296 0.21933-0.0422 0.32892-0.008 0.08347-0.027 0.16579-0.0217 0.25011-0.00004 0.09238-0.00019 0.18475-0.00053 0.27713 0.00053 0.08579-0.00003 0.17161 0.002 0.25738l-0.30746 0.15666z"/>
    <path d="m193.85-40.223c0.003-0.09464 0.003-0.18938 0.002-0.28406 0.00004-0.095-0.00021-0.18999-0.00026-0.28498 0.001-0.09603 0.0273-0.1873 0.0572-0.27759 0.0298-0.10912 0.0746-0.2129 0.10643-0.3214 0.0197-0.08976 0.0446-0.17807 0.0714-0.26591l0.30729-0.14544c-0.0261 0.08845-0.0564 0.17577-0.0741 0.26656-0.0295 0.10883-0.0729 0.21249-0.1028 0.3211-0.0277 0.08785-0.0603 0.17436-0.0618 0.26798-0.00009 0.0951-0.00026 0.1902-0.00026 0.28529-0.00027 0.09392-0.0008 0.1879 0.002 0.28179l-0.30745 0.15666z"/>
    <path d="m193.68-40.927c0.0159-0.08056 0.0233-0.16238 0.0285-0.24422 0.0115-0.09256 0.0562-0.17718 0.0881-0.26406 0.0489-0.10661 0.07-0.22047 0.0826-0.33618-0.00053-0.11055 0.0262-0.21656 0.05-0.32357 0.003-0.01296 0.005-0.02596 0.008-0.03894l0.30768-0.14864c-0.003 0.01326-0.006 0.02653-0.009 0.0398-0.0242 0.10626-0.0562 0.2106-0.0534 0.32088-0.0121 0.11723-0.0277 0.23538-0.0784 0.34322-0.03 0.08465-0.0692 0.16695-0.0897 0.25411-0.005 0.08244-0.014 0.16453-0.025 0.24638l-0.3093 0.15122z"/>
    <path d="m193.78-40.751c0.005-0.11622 0.003-0.23258 0.002-0.34885-0.001-0.08807-0.0008-0.17615-0.0008-0.26423-0.00011-0.07719-0.00079-0.15438-0.00017-0.23156 0.00053-0.09364 0.00016-0.18728 0.001-0.28092 0.00027-0.09945-0.00053-0.19891-0.001-0.29836 0.001-0.09237 0.00027-0.18476-0.00002-0.27714-0.006-0.08623 0.0242-0.16784 0.0444-0.25026 0.013-0.07947 0.0304-0.15811 0.044-0.23748 0.009-0.05202 0.0125-0.10478 0.0145-0.15749l0.30618-0.15476c-0.001 0.05424-0.003 0.10864-0.0128 0.1622-0.0149 0.07988-0.0329 0.15911-0.0439 0.23966-0.0189 0.08049-0.0521 0.1592-0.0481 0.24312-0.00027 0.09238-0.001 0.18477-0.00003 0.27716-0.00052 0.09981-0.001 0.19962-0.001 0.29944 0.001 0.09323 0.00079 0.18646 0.001 0.27969 0.00053 0.07725-0.00006 0.1545-0.00018 0.23174-0.00017 0.08838 0.00019 0.17676-0.00079 0.26514-0.00079 0.11552-0.002 0.23113 0.002 0.34659l-0.30682 0.15633z"/>
    <path d="m193.72-42.702c0.0122-0.0735 0.0262-0.14614 0.0435-0.21864 0.0116-0.0727 0.0391-0.14092 0.0625-0.2102 0.024-0.07293 0.0281-0.1497 0.031-0.22578 0.002-0.07731 0.002-0.15466 0.002-0.232-0.00052-0.06898-0.001-0.13796-0.001-0.20694 0.004-0.07293-0.006-0.1467 0.006-0.21874 0.0278-0.07003 0.0452-0.14196 0.0551-0.21651 0.007-0.06438 0.008-0.12922 0.009-0.19392 0.00053-0.04651 0.003-0.09188-0.0142-0.1357-0.013 0.0067-0.006 0.0011-0.0143 0.02193l0.27182-0.21365c0.0333 0.0077 0.0183 0.000064 0.0446 0.0235 0.0181 0.04838 0.0216 0.09679 0.018 0.14826-0.00014 0.06613-0.001 0.13227-0.008 0.19811-0.009 0.07529-0.0199 0.15074-0.052 0.22014-0.0243 0.06608-0.005 0.1415-0.0102 0.21079 0.00008 0.06921-0.00022 0.13841-0.00027 0.20762 0.00027 0.07769 0.001 0.15539-0.00079 0.23306-0.003 0.0785-0.005 0.15805-0.0263 0.23408-0.0216 0.06911-0.053 0.13536-0.0637 0.20754-0.0165 0.07185-0.0365 0.14252-0.0416 0.21651l-0.31043 0.15053z"/>
    <path d="m193.71-43.049c-0.0121-0.09039-0.0214-0.18106-0.026-0.27214-0.003-0.09405-0.004-0.18816-0.005-0.28226 0.002-0.0918-0.003-0.18385 0.004-0.27545 0.008-0.07848 0.0338-0.15408 0.0599-0.22825 0.0152-0.06803 0.0547-0.12554 0.0819-0.18855 0.0193-0.04962 0.0246-0.10228 0.0274-0.15494 0.002-0.04335 0.001-0.08675 0.00053-0.13012-0.00002-0.0065-0.00004-0.01294-0.00005-0.01939l0.3076-0.15694c0.00005 0.0064 0.00011 0.01286 0.00016 0.01931-0.00012 0.04402 0.00027 0.08805-0.00053 0.13207-0.002 0.05605-0.007 0.11197-0.0236 0.16579-0.0234 0.06541-0.0678 0.11946-0.0834 0.18781-0.0254 0.07237-0.0529 0.14514-0.0642 0.22128-0.0112 0.09019-0.003 0.18156-0.005 0.27226-0.00026 0.09375-0.00079 0.18756 0.003 0.28125 0.005 0.08935 0.0105 0.17892 0.0275 0.26692l-0.30414 0.16135z"/>
    <path d="m193.71-43.951c-0.0113-0.0723-0.0247-0.1443-0.0234-0.21767 0.0119-0.06936 0.0369-0.1353 0.0498-0.20452 0.0179-0.06278 0.0326-0.12563 0.0404-0.19048 0.005-0.03892 0.0131-0.07747 0.0202-0.1161l0.30805-0.14954c-0.008 0.03765-0.0152 0.07537-0.0219 0.11324-0.005 0.06567-0.0158 0.13036-0.0382 0.19257-0.0121 0.0685-0.0315 0.13459-0.0526 0.20089-0.006 0.07021 0.008 0.14018 0.0218 0.20896l-0.30425 0.16266z"/>
   </g>
  </g>
 </g>
</symbol>
<symbol id="icon-deviantart" viewBox="0 0 18 32">
<path class="path1" d="M18.286 5.411l-5.411 10.393 0.429 0.554h4.982v7.411h-9.054l-0.786 0.536-2.536 4.875-0.536 0.536h-5.375v-5.411l5.411-10.411-0.429-0.536h-4.982v-7.411h9.054l0.786-0.536 2.536-4.875 0.536-0.536h5.375v5.411z"></path>
</symbol>
<symbol id="icon-medium" viewBox="0 0 32 32">
<path class="path1" d="M10.661 7.518v20.946q0 0.446-0.223 0.759t-0.652 0.313q-0.304 0-0.589-0.143l-8.304-4.161q-0.375-0.179-0.634-0.598t-0.259-0.83v-20.357q0-0.357 0.179-0.607t0.518-0.25q0.25 0 0.786 0.268l9.125 4.571q0.054 0.054 0.054 0.089zM11.804 9.321l9.536 15.464-9.536-4.75v-10.714zM32 9.643v18.821q0 0.446-0.25 0.723t-0.679 0.277-0.839-0.232l-7.875-3.929zM31.946 7.5q0 0.054-4.58 7.491t-5.366 8.705l-6.964-11.321 5.786-9.411q0.304-0.5 0.929-0.5 0.25 0 0.464 0.107l9.661 4.821q0.071 0.036 0.071 0.107z"></path>
</symbol>
<symbol id="icon-slideshare" viewBox="0 0 32 32">
<path class="path1" d="M15.589 13.214q0 1.482-1.134 2.545t-2.723 1.063-2.723-1.063-1.134-2.545q0-1.5 1.134-2.554t2.723-1.054 2.723 1.054 1.134 2.554zM24.554 13.214q0 1.482-1.125 2.545t-2.732 1.063q-1.589 0-2.723-1.063t-1.134-2.545q0-1.5 1.134-2.554t2.723-1.054q1.607 0 2.732 1.054t1.125 2.554zM28.571 16.429v-11.911q0-1.554-0.571-2.205t-1.982-0.652h-19.857q-1.482 0-2.009 0.607t-0.527 2.25v12.018q0.768 0.411 1.58 0.714t1.446 0.5 1.446 0.33 1.268 0.196 1.25 0.071 1.045 0.009 1.009-0.036 0.795-0.036q1.214-0.018 1.696 0.482 0.107 0.107 0.179 0.161 0.464 0.446 1.089 0.911 0.125-1.625 2.107-1.554 0.089 0 0.652 0.027t0.768 0.036 0.813 0.018 0.946-0.018 0.973-0.080 1.089-0.152 1.107-0.241 1.196-0.348 1.205-0.482 1.286-0.616zM31.482 16.339q-2.161 2.661-6.643 4.5 1.5 5.089-0.411 8.304-1.179 2.018-3.268 2.643-1.857 0.571-3.25-0.268-1.536-0.911-1.464-2.929l-0.018-5.821v-0.018q-0.143-0.036-0.438-0.107t-0.42-0.089l-0.018 6.036q0.071 2.036-1.482 2.929-1.411 0.839-3.268 0.268-2.089-0.643-3.25-2.679-1.875-3.214-0.393-8.268-4.482-1.839-6.643-4.5-0.446-0.661-0.071-1.125t1.071 0.018q0.054 0.036 0.196 0.125t0.196 0.143v-12.393q0-1.286 0.839-2.196t2.036-0.911h22.446q1.196 0 2.036 0.911t0.839 2.196v12.393l0.375-0.268q0.696-0.482 1.071-0.018t-0.071 1.125z"></path>
</symbol>
<symbol id="icon-snapchat-ghost" viewBox="0 0 30 32">
<path class="path1" d="M15.143 2.286q2.393-0.018 4.295 1.223t2.92 3.438q0.482 1.036 0.482 3.196 0 0.839-0.161 3.411 0.25 0.125 0.5 0.125 0.321 0 0.911-0.241t0.911-0.241q0.518 0 1 0.321t0.482 0.821q0 0.571-0.563 0.964t-1.232 0.563-1.232 0.518-0.563 0.848q0 0.268 0.214 0.768 0.661 1.464 1.83 2.679t2.58 1.804q0.5 0.214 1.429 0.411 0.5 0.107 0.5 0.625 0 1.25-3.911 1.839-0.125 0.196-0.196 0.696t-0.25 0.83-0.589 0.33q-0.357 0-1.107-0.116t-1.143-0.116q-0.661 0-1.107 0.089-0.571 0.089-1.125 0.402t-1.036 0.679-1.036 0.723-1.357 0.598-1.768 0.241q-0.929 0-1.723-0.241t-1.339-0.598-1.027-0.723-1.036-0.679-1.107-0.402q-0.464-0.089-1.125-0.089-0.429 0-1.17 0.134t-1.045 0.134q-0.446 0-0.625-0.33t-0.25-0.848-0.196-0.714q-3.911-0.589-3.911-1.839 0-0.518 0.5-0.625 0.929-0.196 1.429-0.411 1.393-0.571 2.58-1.804t1.83-2.679q0.214-0.5 0.214-0.768 0-0.5-0.563-0.848t-1.241-0.527-1.241-0.563-0.563-0.938q0-0.482 0.464-0.813t0.982-0.33q0.268 0 0.857 0.232t0.946 0.232q0.321 0 0.571-0.125-0.161-2.536-0.161-3.393 0-2.179 0.482-3.214 1.143-2.446 3.071-3.536t4.714-1.125z"></path>
</symbol>
<symbol id="icon-yelp" viewBox="0 0 27 32">
<path class="path1" d="M13.804 23.554v2.268q-0.018 5.214-0.107 5.446-0.214 0.571-0.911 0.714-0.964 0.161-3.241-0.679t-2.902-1.589q-0.232-0.268-0.304-0.643-0.018-0.214 0.071-0.464 0.071-0.179 0.607-0.839t3.232-3.857q0.018 0 1.071-1.25 0.268-0.339 0.705-0.438t0.884 0.063q0.429 0.179 0.67 0.518t0.223 0.75zM11.143 19.071q-0.054 0.982-0.929 1.25l-2.143 0.696q-4.911 1.571-5.214 1.571-0.625-0.036-0.964-0.643-0.214-0.446-0.304-1.339-0.143-1.357 0.018-2.973t0.536-2.223 1-0.571q0.232 0 3.607 1.375 1.25 0.518 2.054 0.839l1.5 0.607q0.411 0.161 0.634 0.545t0.205 0.866zM25.893 24.375q-0.125 0.964-1.634 2.875t-2.42 2.268q-0.661 0.25-1.125-0.125-0.25-0.179-3.286-5.125l-0.839-1.375q-0.25-0.375-0.205-0.821t0.348-0.821q0.625-0.768 1.482-0.464 0.018 0.018 2.125 0.714 3.625 1.179 4.321 1.42t0.839 0.366q0.5 0.393 0.393 1.089zM13.893 13.089q0.089 1.821-0.964 2.179-1.036 0.304-2.036-1.268l-6.75-10.679q-0.143-0.625 0.339-1.107 0.732-0.768 3.705-1.598t4.009-0.563q0.714 0.179 0.875 0.804 0.054 0.321 0.393 5.455t0.429 6.777zM25.714 15.018q0.054 0.696-0.464 1.054-0.268 0.179-5.875 1.536-1.196 0.268-1.625 0.411l0.018-0.036q-0.411 0.107-0.821-0.071t-0.661-0.571q-0.536-0.839 0-1.554 0.018-0.018 1.339-1.821 2.232-3.054 2.679-3.643t0.607-0.696q0.5-0.339 1.161-0.036 0.857 0.411 2.196 2.384t1.446 2.991v0.054z"></path>
</symbol>
<symbol id="icon-vine" viewBox="0 0 27 32">
<path class="path1" d="M26.732 14.768v3.536q-1.804 0.411-3.536 0.411-1.161 2.429-2.955 4.839t-3.241 3.848-2.286 1.902q-1.429 0.804-2.893-0.054-0.5-0.304-1.080-0.777t-1.518-1.491-1.83-2.295-1.92-3.286-1.884-4.357-1.634-5.616-1.259-6.964h5.054q0.464 3.893 1.25 7.116t1.866 5.661 2.17 4.205 2.5 3.482q3.018-3.018 5.125-7.25-2.536-1.286-3.982-3.929t-1.446-5.946q0-3.429 1.857-5.616t5.071-2.188q3.179 0 4.875 1.884t1.696 5.313q0 2.839-1.036 5.107-0.125 0.018-0.348 0.054t-0.821 0.036-1.125-0.107-1.107-0.455-0.902-0.92q0.554-1.839 0.554-3.286 0-1.554-0.518-2.357t-1.411-0.804q-0.946 0-1.518 0.884t-0.571 2.509q0 3.321 1.875 5.241t4.768 1.92q1.107 0 2.161-0.25z"></path>
</symbol>
<symbol id="icon-vk" viewBox="0 0 35 32">
<path class="path1" d="M34.232 9.286q0.411 1.143-2.679 5.25-0.429 0.571-1.161 1.518-1.393 1.786-1.607 2.339-0.304 0.732 0.25 1.446 0.304 0.375 1.446 1.464h0.018l0.071 0.071q2.518 2.339 3.411 3.946 0.054 0.089 0.116 0.223t0.125 0.473-0.009 0.607-0.446 0.491-1.054 0.223l-4.571 0.071q-0.429 0.089-1-0.089t-0.929-0.393l-0.357-0.214q-0.536-0.375-1.25-1.143t-1.223-1.384-1.089-1.036-1.009-0.277q-0.054 0.018-0.143 0.063t-0.304 0.259-0.384 0.527-0.304 0.929-0.116 1.384q0 0.268-0.063 0.491t-0.134 0.33l-0.071 0.089q-0.321 0.339-0.946 0.393h-2.054q-1.268 0.071-2.607-0.295t-2.348-0.946-1.839-1.179-1.259-1.027l-0.446-0.429q-0.179-0.179-0.491-0.536t-1.277-1.625-1.893-2.696-2.188-3.768-2.33-4.857q-0.107-0.286-0.107-0.482t0.054-0.286l0.071-0.107q0.268-0.339 1.018-0.339l4.893-0.036q0.214 0.036 0.411 0.116t0.286 0.152l0.089 0.054q0.286 0.196 0.429 0.571 0.357 0.893 0.821 1.848t0.732 1.455l0.286 0.518q0.518 1.071 1 1.857t0.866 1.223 0.741 0.688 0.607 0.25 0.482-0.089q0.036-0.018 0.089-0.089t0.214-0.393 0.241-0.839 0.17-1.446 0-2.232q-0.036-0.714-0.161-1.304t-0.25-0.821l-0.107-0.214q-0.446-0.607-1.518-0.768-0.232-0.036 0.089-0.429 0.304-0.339 0.679-0.536 0.946-0.464 4.268-0.429 1.464 0.018 2.411 0.232 0.357 0.089 0.598 0.241t0.366 0.429 0.188 0.571 0.063 0.813-0.018 0.982-0.045 1.259-0.027 1.473q0 0.196-0.018 0.75t-0.009 0.857 0.063 0.723 0.205 0.696 0.402 0.438q0.143 0.036 0.304 0.071t0.464-0.196 0.679-0.616 0.929-1.196 1.214-1.92q1.071-1.857 1.911-4.018 0.071-0.179 0.179-0.313t0.196-0.188l0.071-0.054 0.089-0.045t0.232-0.054 0.357-0.009l5.143-0.036q0.696-0.089 1.143 0.045t0.554 0.295z"></path>
</symbol>
<symbol id="icon-search" viewBox="0 0 30 32">
<path class="path1" d="M20.571 14.857q0-3.304-2.348-5.652t-5.652-2.348-5.652 2.348-2.348 5.652 2.348 5.652 5.652 2.348 5.652-2.348 2.348-5.652zM29.714 29.714q0 0.929-0.679 1.607t-1.607 0.679q-0.964 0-1.607-0.679l-6.125-6.107q-3.196 2.214-7.125 2.214-2.554 0-4.884-0.991t-4.018-2.679-2.679-4.018-0.991-4.884 0.991-4.884 2.679-4.018 4.018-2.679 4.884-0.991 4.884 0.991 4.018 2.679 2.679 4.018 0.991 4.884q0 3.929-2.214 7.125l6.125 6.125q0.661 0.661 0.661 1.607z"></path>
</symbol>
<symbol id="icon-envelope-o" viewBox="0 0 32 32">
<path class="path1" d="M29.714 26.857v-13.714q-0.571 0.643-1.232 1.179-4.786 3.679-7.607 6.036-0.911 0.768-1.482 1.196t-1.545 0.866-1.83 0.438h-0.036q-0.857 0-1.83-0.438t-1.545-0.866-1.482-1.196q-2.821-2.357-7.607-6.036-0.661-0.536-1.232-1.179v13.714q0 0.232 0.17 0.402t0.402 0.17h26.286q0.232 0 0.402-0.17t0.17-0.402zM29.714 8.089v-0.438t-0.009-0.232-0.054-0.223-0.098-0.161-0.161-0.134-0.25-0.045h-26.286q-0.232 0-0.402 0.17t-0.17 0.402q0 3 2.625 5.071 3.446 2.714 7.161 5.661 0.107 0.089 0.625 0.527t0.821 0.67 0.795 0.563 0.902 0.491 0.768 0.161h0.036q0.357 0 0.768-0.161t0.902-0.491 0.795-0.563 0.821-0.67 0.625-0.527q3.714-2.946 7.161-5.661 0.964-0.768 1.795-2.063t0.83-2.348zM32 7.429v19.429q0 1.179-0.839 2.018t-2.018 0.839h-26.286q-1.179 0-2.018-0.839t-0.839-2.018v-19.429q0-1.179 0.839-2.018t2.018-0.839h26.286q1.179 0 2.018 0.839t0.839 2.018z"></path>
</symbol>
<symbol id="icon-close" viewBox="0 0 25 32">
<path class="path1" d="M23.179 23.607q0 0.714-0.5 1.214l-2.429 2.429q-0.5 0.5-1.214 0.5t-1.214-0.5l-5.25-5.25-5.25 5.25q-0.5 0.5-1.214 0.5t-1.214-0.5l-2.429-2.429q-0.5-0.5-0.5-1.214t0.5-1.214l5.25-5.25-5.25-5.25q-0.5-0.5-0.5-1.214t0.5-1.214l2.429-2.429q0.5-0.5 1.214-0.5t1.214 0.5l5.25 5.25 5.25-5.25q0.5-0.5 1.214-0.5t1.214 0.5l2.429 2.429q0.5 0.5 0.5 1.214t-0.5 1.214l-5.25 5.25 5.25 5.25q0.5 0.5 0.5 1.214z"></path>
</symbol>
<symbol id="icon-angle-down" viewBox="0 0 21 32">
<path class="path1" d="M19.196 13.143q0 0.232-0.179 0.411l-8.321 8.321q-0.179 0.179-0.411 0.179t-0.411-0.179l-8.321-8.321q-0.179-0.179-0.179-0.411t0.179-0.411l0.893-0.893q0.179-0.179 0.411-0.179t0.411 0.179l7.018 7.018 7.018-7.018q0.179-0.179 0.411-0.179t0.411 0.179l0.893 0.893q0.179 0.179 0.179 0.411z"></path>
</symbol>
<symbol id="icon-folder-open" viewBox="0 0 34 32">
<path class="path1" d="M33.554 17q0 0.554-0.554 1.179l-6 7.071q-0.768 0.911-2.152 1.545t-2.563 0.634h-19.429q-0.607 0-1.080-0.232t-0.473-0.768q0-0.554 0.554-1.179l6-7.071q0.768-0.911 2.152-1.545t2.563-0.634h19.429q0.607 0 1.080 0.232t0.473 0.768zM27.429 10.857v2.857h-14.857q-1.679 0-3.518 0.848t-2.929 2.134l-6.107 7.179q0-0.071-0.009-0.223t-0.009-0.223v-17.143q0-1.643 1.179-2.821t2.821-1.179h5.714q1.643 0 2.821 1.179t1.179 2.821v0.571h9.714q1.643 0 2.821 1.179t1.179 2.821z"></path>
</symbol>
<symbol id="icon-twitter" viewBox="0 0 30 32">
<path class="path1" d="M28.929 7.286q-1.196 1.75-2.893 2.982 0.018 0.25 0.018 0.75 0 2.321-0.679 4.634t-2.063 4.437-3.295 3.759-4.607 2.607-5.768 0.973q-4.839 0-8.857-2.589 0.625 0.071 1.393 0.071 4.018 0 7.161-2.464-1.875-0.036-3.357-1.152t-2.036-2.848q0.589 0.089 1.089 0.089 0.768 0 1.518-0.196-2-0.411-3.313-1.991t-1.313-3.67v-0.071q1.214 0.679 2.607 0.732-1.179-0.786-1.875-2.054t-0.696-2.75q0-1.571 0.786-2.911 2.161 2.661 5.259 4.259t6.634 1.777q-0.143-0.679-0.143-1.321 0-2.393 1.688-4.080t4.080-1.688q2.5 0 4.214 1.821 1.946-0.375 3.661-1.393-0.661 2.054-2.536 3.179 1.661-0.179 3.321-0.893z"></path>
</symbol>
<symbol id="icon-facebook" viewBox="0 0 19 32">
<path class="path1" d="M17.125 0.214v4.714h-2.804q-1.536 0-2.071 0.643t-0.536 1.929v3.375h5.232l-0.696 5.286h-4.536v13.554h-5.464v-13.554h-4.554v-5.286h4.554v-3.893q0-3.321 1.857-5.152t4.946-1.83q2.625 0 4.071 0.214z"></path>
</symbol>
<symbol id="icon-github" viewBox="0 0 27 32">
<path class="path1" d="M13.714 2.286q3.732 0 6.884 1.839t4.991 4.991 1.839 6.884q0 4.482-2.616 8.063t-6.759 4.955q-0.482 0.089-0.714-0.125t-0.232-0.536q0-0.054 0.009-1.366t0.009-2.402q0-1.732-0.929-2.536 1.018-0.107 1.83-0.321t1.679-0.696 1.446-1.188 0.946-1.875 0.366-2.688q0-2.125-1.411-3.679 0.661-1.625-0.143-3.643-0.5-0.161-1.446 0.196t-1.643 0.786l-0.679 0.429q-1.661-0.464-3.429-0.464t-3.429 0.464q-0.286-0.196-0.759-0.482t-1.491-0.688-1.518-0.241q-0.804 2.018-0.143 3.643-1.411 1.554-1.411 3.679 0 1.518 0.366 2.679t0.938 1.875 1.438 1.196 1.679 0.696 1.83 0.321q-0.696 0.643-0.875 1.839-0.375 0.179-0.804 0.268t-1.018 0.089-1.17-0.384-0.991-1.116q-0.339-0.571-0.866-0.929t-0.884-0.429l-0.357-0.054q-0.375 0-0.518 0.080t-0.089 0.205 0.161 0.25 0.232 0.214l0.125 0.089q0.393 0.179 0.777 0.679t0.563 0.911l0.179 0.411q0.232 0.679 0.786 1.098t1.196 0.536 1.241 0.125 0.991-0.063l0.411-0.071q0 0.679 0.009 1.58t0.009 0.973q0 0.321-0.232 0.536t-0.714 0.125q-4.143-1.375-6.759-4.955t-2.616-8.063q0-3.732 1.839-6.884t4.991-4.991 6.884-1.839zM5.196 21.982q0.054-0.125-0.125-0.214-0.179-0.054-0.232 0.036-0.054 0.125 0.125 0.214 0.161 0.107 0.232-0.036zM5.75 22.589q0.125-0.089-0.036-0.286-0.179-0.161-0.286-0.054-0.125 0.089 0.036 0.286 0.179 0.179 0.286 0.054zM6.286 23.393q0.161-0.125 0-0.339-0.143-0.232-0.304-0.107-0.161 0.089 0 0.321t0.304 0.125zM7.036 24.143q0.143-0.143-0.071-0.339-0.214-0.214-0.357-0.054-0.161 0.143 0.071 0.339 0.214 0.214 0.357 0.054zM8.054 24.589q0.054-0.196-0.232-0.286-0.268-0.071-0.339 0.125t0.232 0.268q0.268 0.107 0.339-0.107zM9.179 24.679q0-0.232-0.304-0.196-0.286 0-0.286 0.196 0 0.232 0.304 0.196 0.286 0 0.286-0.196zM10.214 24.5q-0.036-0.196-0.321-0.161-0.286 0.054-0.25 0.268t0.321 0.143 0.25-0.25z"></path>
</symbol>
<symbol id="icon-bars" viewBox="0 0 27 32">
<path class="path1" d="M27.429 24v2.286q0 0.464-0.339 0.804t-0.804 0.339h-25.143q-0.464 0-0.804-0.339t-0.339-0.804v-2.286q0-0.464 0.339-0.804t0.804-0.339h25.143q0.464 0 0.804 0.339t0.339 0.804zM27.429 14.857v2.286q0 0.464-0.339 0.804t-0.804 0.339h-25.143q-0.464 0-0.804-0.339t-0.339-0.804v-2.286q0-0.464 0.339-0.804t0.804-0.339h25.143q0.464 0 0.804 0.339t0.339 0.804zM27.429 5.714v2.286q0 0.464-0.339 0.804t-0.804 0.339h-25.143q-0.464 0-0.804-0.339t-0.339-0.804v-2.286q0-0.464 0.339-0.804t0.804-0.339h25.143q0.464 0 0.804 0.339t0.339 0.804z"></path>
</symbol>
<symbol id="icon-google-plus" viewBox="0 0 41 32">
<path class="path1" d="M25.661 16.304q0 3.714-1.554 6.616t-4.429 4.536-6.589 1.634q-2.661 0-5.089-1.036t-4.179-2.786-2.786-4.179-1.036-5.089 1.036-5.089 2.786-4.179 4.179-2.786 5.089-1.036q5.107 0 8.768 3.429l-3.554 3.411q-2.089-2.018-5.214-2.018-2.196 0-4.063 1.107t-2.955 3.009-1.089 4.152 1.089 4.152 2.955 3.009 4.063 1.107q1.482 0 2.723-0.411t2.045-1.027 1.402-1.402 0.875-1.482 0.384-1.321h-7.429v-4.5h12.357q0.214 1.125 0.214 2.179zM41.143 14.125v3.75h-3.732v3.732h-3.75v-3.732h-3.732v-3.75h3.732v-3.732h3.75v3.732h3.732z"></path>
</symbol>
<symbol id="icon-linkedin" viewBox="0 0 27 32">
<path class="path1" d="M6.232 11.161v17.696h-5.893v-17.696h5.893zM6.607 5.696q0.018 1.304-0.902 2.179t-2.42 0.875h-0.036q-1.464 0-2.357-0.875t-0.893-2.179q0-1.321 0.92-2.188t2.402-0.866 2.375 0.866 0.911 2.188zM27.429 18.714v10.143h-5.875v-9.464q0-1.875-0.723-2.938t-2.259-1.063q-1.125 0-1.884 0.616t-1.134 1.527q-0.196 0.536-0.196 1.446v9.875h-5.875q0.036-7.125 0.036-11.554t-0.018-5.286l-0.018-0.857h5.875v2.571h-0.036q0.357-0.571 0.732-1t1.009-0.929 1.554-0.777 2.045-0.277q3.054 0 4.911 2.027t1.857 5.938z"></path>
</symbol>
<symbol id="icon-quote-right" viewBox="0 0 30 32">
<path class="path1" d="M13.714 5.714v12.571q0 1.857-0.723 3.545t-1.955 2.92-2.92 1.955-3.545 0.723h-1.143q-0.464 0-0.804-0.339t-0.339-0.804v-2.286q0-0.464 0.339-0.804t0.804-0.339h1.143q1.893 0 3.232-1.339t1.339-3.232v-0.571q0-0.714-0.5-1.214t-1.214-0.5h-4q-1.429 0-2.429-1t-1-2.429v-6.857q0-1.429 1-2.429t2.429-1h6.857q1.429 0 2.429 1t1 2.429zM29.714 5.714v12.571q0 1.857-0.723 3.545t-1.955 2.92-2.92 1.955-3.545 0.723h-1.143q-0.464 0-0.804-0.339t-0.339-0.804v-2.286q0-0.464 0.339-0.804t0.804-0.339h1.143q1.893 0 3.232-1.339t1.339-3.232v-0.571q0-0.714-0.5-1.214t-1.214-0.5h-4q-1.429 0-2.429-1t-1-2.429v-6.857q0-1.429 1-2.429t2.429-1h6.857q1.429 0 2.429 1t1 2.429z"></path>
</symbol>
<symbol id="icon-mail-reply" viewBox="0 0 32 32">
<path class="path1" d="M32 20q0 2.964-2.268 8.054-0.054 0.125-0.188 0.429t-0.241 0.536-0.232 0.393q-0.214 0.304-0.5 0.304-0.268 0-0.42-0.179t-0.152-0.446q0-0.161 0.045-0.473t0.045-0.42q0.089-1.214 0.089-2.196 0-1.804-0.313-3.232t-0.866-2.473-1.429-1.804-1.884-1.241-2.375-0.759-2.75-0.384-3.134-0.107h-4v4.571q0 0.464-0.339 0.804t-0.804 0.339-0.804-0.339l-9.143-9.143q-0.339-0.339-0.339-0.804t0.339-0.804l9.143-9.143q0.339-0.339 0.804-0.339t0.804 0.339 0.339 0.804v4.571h4q12.732 0 15.625 7.196 0.946 2.393 0.946 5.946z"></path>
</symbol>
<symbol id="icon-youtube" viewBox="0 0 27 32">
<path class="path1" d="M17.339 22.214v3.768q0 1.196-0.696 1.196-0.411 0-0.804-0.393v-5.375q0.393-0.393 0.804-0.393 0.696 0 0.696 1.196zM23.375 22.232v0.821h-1.607v-0.821q0-1.214 0.804-1.214t0.804 1.214zM6.125 18.339h1.911v-1.679h-5.571v1.679h1.875v10.161h1.786v-10.161zM11.268 28.5h1.589v-8.821h-1.589v6.75q-0.536 0.75-1.018 0.75-0.321 0-0.375-0.375-0.018-0.054-0.018-0.625v-6.5h-1.589v6.982q0 0.875 0.143 1.304 0.214 0.661 1.036 0.661 0.857 0 1.821-1.089v0.964zM18.929 25.857v-3.518q0-1.304-0.161-1.768-0.304-1-1.268-1-0.893 0-1.661 0.964v-3.875h-1.589v11.839h1.589v-0.857q0.804 0.982 1.661 0.982 0.964 0 1.268-0.982 0.161-0.482 0.161-1.786zM24.964 25.679v-0.232h-1.625q0 0.911-0.036 1.089-0.125 0.643-0.714 0.643-0.821 0-0.821-1.232v-1.554h3.196v-1.839q0-1.411-0.482-2.071-0.696-0.911-1.893-0.911-1.214 0-1.911 0.911-0.5 0.661-0.5 2.071v3.089q0 1.411 0.518 2.071 0.696 0.911 1.929 0.911 1.286 0 1.929-0.946 0.321-0.482 0.375-0.964 0.036-0.161 0.036-1.036zM14.107 9.375v-3.75q0-1.232-0.768-1.232t-0.768 1.232v3.75q0 1.25 0.768 1.25t0.768-1.25zM26.946 22.786q0 4.179-0.464 6.25-0.25 1.054-1.036 1.768t-1.821 0.821q-3.286 0.375-9.911 0.375t-9.911-0.375q-1.036-0.107-1.83-0.821t-1.027-1.768q-0.464-2-0.464-6.25 0-4.179 0.464-6.25 0.25-1.054 1.036-1.768t1.839-0.839q3.268-0.357 9.893-0.357t9.911 0.357q1.036 0.125 1.83 0.839t1.027 1.768q0.464 2 0.464 6.25zM9.125 0h1.821l-2.161 7.125v4.839h-1.786v-4.839q-0.25-1.321-1.089-3.786-0.661-1.839-1.161-3.339h1.893l1.268 4.696zM15.732 5.946v3.125q0 1.446-0.5 2.107-0.661 0.911-1.893 0.911-1.196 0-1.875-0.911-0.5-0.679-0.5-2.107v-3.125q0-1.429 0.5-2.089 0.679-0.911 1.875-0.911 1.232 0 1.893 0.911 0.5 0.661 0.5 2.089zM21.714 3.054v8.911h-1.625v-0.982q-0.946 1.107-1.839 1.107-0.821 0-1.054-0.661-0.143-0.429-0.143-1.339v-7.036h1.625v6.554q0 0.589 0.018 0.625 0.054 0.393 0.375 0.393 0.482 0 1.018-0.768v-6.804h1.625z"></path>
</symbol>
<symbol id="icon-dropbox" viewBox="0 0 32 32">
<path class="path1" d="M7.179 12.625l8.821 5.446-6.107 5.089-8.75-5.696zM24.786 22.536v1.929l-8.75 5.232v0.018l-0.018-0.018-0.018 0.018v-0.018l-8.732-5.232v-1.929l2.625 1.714 6.107-5.071v-0.036l0.018 0.018 0.018-0.018v0.036l6.125 5.071zM9.893 2.107l6.107 5.089-8.821 5.429-6.036-4.821zM24.821 12.625l6.036 4.839-8.732 5.696-6.125-5.089zM22.125 2.107l8.732 5.696-6.036 4.821-8.821-5.429z"></path>
</symbol>
<symbol id="icon-instagram" viewBox="0 0 27 32">
<path class="path1" d="M18.286 16q0-1.893-1.339-3.232t-3.232-1.339-3.232 1.339-1.339 3.232 1.339 3.232 3.232 1.339 3.232-1.339 1.339-3.232zM20.75 16q0 2.929-2.054 4.982t-4.982 2.054-4.982-2.054-2.054-4.982 2.054-4.982 4.982-2.054 4.982 2.054 2.054 4.982zM22.679 8.679q0 0.679-0.482 1.161t-1.161 0.482-1.161-0.482-0.482-1.161 0.482-1.161 1.161-0.482 1.161 0.482 0.482 1.161zM13.714 4.75q-0.125 0-1.366-0.009t-1.884 0-1.723 0.054-1.839 0.179-1.277 0.33q-0.893 0.357-1.571 1.036t-1.036 1.571q-0.196 0.518-0.33 1.277t-0.179 1.839-0.054 1.723 0 1.884 0.009 1.366-0.009 1.366 0 1.884 0.054 1.723 0.179 1.839 0.33 1.277q0.357 0.893 1.036 1.571t1.571 1.036q0.518 0.196 1.277 0.33t1.839 0.179 1.723 0.054 1.884 0 1.366-0.009 1.366 0.009 1.884 0 1.723-0.054 1.839-0.179 1.277-0.33q0.893-0.357 1.571-1.036t1.036-1.571q0.196-0.518 0.33-1.277t0.179-1.839 0.054-1.723 0-1.884-0.009-1.366 0.009-1.366 0-1.884-0.054-1.723-0.179-1.839-0.33-1.277q-0.357-0.893-1.036-1.571t-1.571-1.036q-0.518-0.196-1.277-0.33t-1.839-0.179-1.723-0.054-1.884 0-1.366 0.009zM27.429 16q0 4.089-0.089 5.661-0.179 3.714-2.214 5.75t-5.75 2.214q-1.571 0.089-5.661 0.089t-5.661-0.089q-3.714-0.179-5.75-2.214t-2.214-5.75q-0.089-1.571-0.089-5.661t0.089-5.661q0.179-3.714 2.214-5.75t5.75-2.214q1.571-0.089 5.661-0.089t5.661 0.089q3.714 0.179 5.75 2.214t2.214 5.75q0.089 1.571 0.089 5.661z"></path>
</symbol>
<symbol id="icon-flickr" viewBox="0 0 27 32">
<path class="path1" d="M22.286 2.286q2.125 0 3.634 1.509t1.509 3.634v17.143q0 2.125-1.509 3.634t-3.634 1.509h-17.143q-2.125 0-3.634-1.509t-1.509-3.634v-17.143q0-2.125 1.509-3.634t3.634-1.509h17.143zM12.464 16q0-1.571-1.107-2.679t-2.679-1.107-2.679 1.107-1.107 2.679 1.107 2.679 2.679 1.107 2.679-1.107 1.107-2.679zM22.536 16q0-1.571-1.107-2.679t-2.679-1.107-2.679 1.107-1.107 2.679 1.107 2.679 2.679 1.107 2.679-1.107 1.107-2.679z"></path>
</symbol>
<symbol id="icon-tumblr" viewBox="0 0 19 32">
<path class="path1" d="M16.857 23.732l1.429 4.232q-0.411 0.625-1.982 1.179t-3.161 0.571q-1.857 0.036-3.402-0.464t-2.545-1.321-1.696-1.893-0.991-2.143-0.295-2.107v-9.714h-3v-3.839q1.286-0.464 2.304-1.241t1.625-1.607 1.036-1.821 0.607-1.768 0.268-1.58q0.018-0.089 0.080-0.152t0.134-0.063h4.357v7.571h5.946v4.5h-5.964v9.25q0 0.536 0.116 1t0.402 0.938 0.884 0.741 1.455 0.25q1.393-0.036 2.393-0.518z"></path>
</symbol>
<symbol id="icon-dribbble" viewBox="0 0 27 32">
<path class="path1" d="M18.286 26.786q-0.75-4.304-2.5-8.893h-0.036l-0.036 0.018q-0.286 0.107-0.768 0.295t-1.804 0.875-2.446 1.464-2.339 2.045-1.839 2.643l-0.268-0.196q3.286 2.679 7.464 2.679 2.357 0 4.571-0.929zM14.982 15.946q-0.375-0.875-0.946-1.982-5.554 1.661-12.018 1.661-0.018 0.125-0.018 0.375 0 2.214 0.786 4.223t2.214 3.598q0.893-1.589 2.205-2.973t2.545-2.223 2.33-1.446 1.777-0.857l0.661-0.232q0.071-0.018 0.232-0.063t0.232-0.080zM13.071 12.161q-2.143-3.804-4.357-6.75-2.464 1.161-4.179 3.321t-2.286 4.857q5.393 0 10.821-1.429zM25.286 17.857q-3.75-1.071-7.304-0.518 1.554 4.268 2.286 8.375 1.982-1.339 3.304-3.384t1.714-4.473zM10.911 4.625q-0.018 0-0.036 0.018 0.018-0.018 0.036-0.018zM21.446 7.214q-3.304-2.929-7.732-2.929-1.357 0-2.768 0.339 2.339 3.036 4.393 6.821 1.232-0.464 2.321-1.080t1.723-1.098 1.17-1.018 0.67-0.723zM25.429 15.875q-0.054-4.143-2.661-7.321l-0.018 0.018q-0.161 0.214-0.339 0.438t-0.777 0.795-1.268 1.080-1.786 1.161-2.348 1.152q0.446 0.946 0.786 1.696 0.036 0.107 0.116 0.313t0.134 0.295q0.643-0.089 1.33-0.125t1.313-0.036 1.232 0.027 1.143 0.071 1.009 0.098 0.857 0.116 0.652 0.107 0.446 0.080zM27.429 16q0 3.732-1.839 6.884t-4.991 4.991-6.884 1.839-6.884-1.839-4.991-4.991-1.839-6.884 1.839-6.884 4.991-4.991 6.884-1.839 6.884 1.839 4.991 4.991 1.839 6.884z"></path>
</symbol>
<symbol id="icon-skype" viewBox="0 0 27 32">
<path class="path1" d="M20.946 18.982q0-0.893-0.348-1.634t-0.866-1.223-1.304-0.875-1.473-0.607-1.563-0.411l-1.857-0.429q-0.536-0.125-0.786-0.188t-0.625-0.205-0.536-0.286-0.295-0.375-0.134-0.536q0-1.375 2.571-1.375 0.768 0 1.375 0.214t0.964 0.509 0.679 0.598 0.714 0.518 0.857 0.214q0.839 0 1.348-0.571t0.509-1.375q0-0.982-1-1.777t-2.536-1.205-3.25-0.411q-1.214 0-2.357 0.277t-2.134 0.839-1.589 1.554-0.598 2.295q0 1.089 0.339 1.902t1 1.348 1.429 0.866 1.839 0.58l2.607 0.643q1.607 0.393 2 0.643 0.571 0.357 0.571 1.071 0 0.696-0.714 1.152t-1.875 0.455q-0.911 0-1.634-0.286t-1.161-0.688-0.813-0.804-0.821-0.688-0.964-0.286q-0.893 0-1.348 0.536t-0.455 1.339q0 1.643 2.179 2.813t5.196 1.17q1.304 0 2.5-0.33t2.188-0.955 1.58-1.67 0.589-2.348zM27.429 22.857q0 2.839-2.009 4.848t-4.848 2.009q-2.321 0-4.179-1.429-1.375 0.286-2.679 0.286-2.554 0-4.884-0.991t-4.018-2.679-2.679-4.018-0.991-4.884q0-1.304 0.286-2.679-1.429-1.857-1.429-4.179 0-2.839 2.009-4.848t4.848-2.009q2.321 0 4.179 1.429 1.375-0.286 2.679-0.286 2.554 0 4.884 0.991t4.018 2.679 2.679 4.018 0.991 4.884q0 1.304-0.286 2.679 1.429 1.857 1.429 4.179z"></path>
</symbol>
<symbol id="icon-foursquare" viewBox="0 0 23 32">
<path class="path1" d="M17.857 7.75l0.661-3.464q0.089-0.411-0.161-0.714t-0.625-0.304h-12.714q-0.411 0-0.688 0.304t-0.277 0.661v19.661q0 0.125 0.107 0.018l5.196-6.286q0.411-0.464 0.679-0.598t0.857-0.134h4.268q0.393 0 0.661-0.259t0.321-0.527q0.429-2.321 0.661-3.411 0.071-0.375-0.205-0.714t-0.652-0.339h-5.25q-0.518 0-0.857-0.339t-0.339-0.857v-0.75q0-0.518 0.339-0.848t0.857-0.33h6.179q0.321 0 0.625-0.241t0.357-0.527zM21.911 3.786q-0.268 1.304-0.955 4.759t-1.241 6.25-0.625 3.098q-0.107 0.393-0.161 0.58t-0.25 0.58-0.438 0.589-0.688 0.375-1.036 0.179h-4.839q-0.232 0-0.393 0.179-0.143 0.161-7.607 8.821-0.393 0.446-1.045 0.509t-0.866-0.098q-0.982-0.393-0.982-1.75v-25.179q0-0.982 0.679-1.83t2.143-0.848h15.857q1.696 0 2.268 0.946t0.179 2.839zM21.911 3.786l-2.821 14.107q0.071-0.304 0.625-3.098t1.241-6.25 0.955-4.759z"></path>
</symbol>
<symbol id="icon-wordpress" viewBox="0 0 32 32">
<path class="path1" d="M2.268 16q0-2.911 1.196-5.589l6.554 17.946q-3.5-1.696-5.625-5.018t-2.125-7.339zM25.268 15.304q0 0.339-0.045 0.688t-0.179 0.884-0.205 0.786-0.313 1.054-0.313 1.036l-1.357 4.571-4.964-14.75q0.821-0.054 1.571-0.143 0.339-0.036 0.464-0.33t-0.045-0.554-0.509-0.241l-3.661 0.179q-1.339-0.018-3.607-0.179-0.214-0.018-0.366 0.089t-0.205 0.268-0.027 0.33 0.161 0.295 0.348 0.143l1.429 0.143 2.143 5.857-3 9-5-14.857q0.821-0.054 1.571-0.143 0.339-0.036 0.464-0.33t-0.045-0.554-0.509-0.241l-3.661 0.179q-0.125 0-0.411-0.009t-0.464-0.009q1.875-2.857 4.902-4.527t6.563-1.67q2.625 0 5.009 0.946t4.259 2.661h-0.179q-0.982 0-1.643 0.723t-0.661 1.705q0 0.214 0.036 0.429t0.071 0.384 0.143 0.411 0.161 0.375 0.214 0.402 0.223 0.375 0.259 0.429 0.25 0.411q1.125 1.911 1.125 3.786zM16.232 17.196l4.232 11.554q0.018 0.107 0.089 0.196-2.25 0.786-4.554 0.786-2 0-3.875-0.571zM28.036 9.411q1.696 3.107 1.696 6.589 0 3.732-1.857 6.884t-4.982 4.973l4.196-12.107q1.054-3.018 1.054-4.929 0-0.75-0.107-1.411zM16 0q3.25 0 6.214 1.268t5.107 3.411 3.411 5.107 1.268 6.214-1.268 6.214-3.411 5.107-5.107 3.411-6.214 1.268-6.214-1.268-5.107-3.411-3.411-5.107-1.268-6.214 1.268-6.214 3.411-5.107 5.107-3.411 6.214-1.268zM16 31.268q3.089 0 5.92-1.214t4.875-3.259 3.259-4.875 1.214-5.92-1.214-5.92-3.259-4.875-4.875-3.259-5.92-1.214-5.92 1.214-4.875 3.259-3.259 4.875-1.214 5.92 1.214 5.92 3.259 4.875 4.875 3.259 5.92 1.214z"></path>
</symbol>
<symbol id="icon-stumbleupon" viewBox="0 0 34 32">
<path class="path1" d="M18.964 12.714v-2.107q0-0.75-0.536-1.286t-1.286-0.536-1.286 0.536-0.536 1.286v10.929q0 3.125-2.25 5.339t-5.411 2.214q-3.179 0-5.42-2.241t-2.241-5.42v-4.75h5.857v4.679q0 0.768 0.536 1.295t1.286 0.527 1.286-0.527 0.536-1.295v-11.071q0-3.054 2.259-5.214t5.384-2.161q3.143 0 5.393 2.179t2.25 5.25v2.429l-3.482 1.036zM28.429 16.679h5.857v4.75q0 3.179-2.241 5.42t-5.42 2.241q-3.161 0-5.411-2.223t-2.25-5.366v-4.786l2.339 1.089 3.482-1.036v4.821q0 0.75 0.536 1.277t1.286 0.527 1.286-0.527 0.536-1.277v-4.911z"></path>
</symbol>
<symbol id="icon-digg" viewBox="0 0 37 32">
<path class="path1" d="M5.857 5.036h3.643v17.554h-9.5v-12.446h5.857v-5.107zM5.857 19.661v-6.589h-2.196v6.589h2.196zM10.964 10.143v12.446h3.661v-12.446h-3.661zM10.964 5.036v3.643h3.661v-3.643h-3.661zM16.089 10.143h9.518v16.821h-9.518v-2.911h5.857v-1.464h-5.857v-12.446zM21.946 19.661v-6.589h-2.196v6.589h2.196zM27.071 10.143h9.5v16.821h-9.5v-2.911h5.839v-1.464h-5.839v-12.446zM32.911 19.661v-6.589h-2.196v6.589h2.196z"></path>
</symbol>
<symbol id="icon-spotify" viewBox="0 0 27 32">
<path class="path1" d="M20.125 21.607q0-0.571-0.536-0.911-3.446-2.054-7.982-2.054-2.375 0-5.125 0.607-0.75 0.161-0.75 0.929 0 0.357 0.241 0.616t0.634 0.259q0.089 0 0.661-0.143 2.357-0.482 4.339-0.482 4.036 0 7.089 1.839 0.339 0.196 0.589 0.196 0.339 0 0.589-0.241t0.25-0.616zM21.839 17.768q0-0.714-0.625-1.089-4.232-2.518-9.786-2.518-2.732 0-5.411 0.75-0.857 0.232-0.857 1.143 0 0.446 0.313 0.759t0.759 0.313q0.125 0 0.661-0.143 2.179-0.589 4.482-0.589 4.982 0 8.714 2.214 0.429 0.232 0.679 0.232 0.446 0 0.759-0.313t0.313-0.759zM23.768 13.339q0-0.839-0.714-1.25-2.25-1.304-5.232-1.973t-6.125-0.67q-3.643 0-6.5 0.839-0.411 0.125-0.688 0.455t-0.277 0.866q0 0.554 0.366 0.929t0.92 0.375q0.196 0 0.714-0.143 2.375-0.661 5.482-0.661 2.839 0 5.527 0.607t4.527 1.696q0.375 0.214 0.714 0.214 0.518 0 0.902-0.366t0.384-0.92zM27.429 16q0 3.732-1.839 6.884t-4.991 4.991-6.884 1.839-6.884-1.839-4.991-4.991-1.839-6.884 1.839-6.884 4.991-4.991 6.884-1.839 6.884 1.839 4.991 4.991 1.839 6.884z"></path>
</symbol>
<symbol id="icon-soundcloud" viewBox="0 0 41 32">
<path class="path1" d="M14 24.5l0.286-4.304-0.286-9.339q-0.018-0.179-0.134-0.304t-0.295-0.125q-0.161 0-0.286 0.125t-0.125 0.304l-0.25 9.339 0.25 4.304q0.018 0.179 0.134 0.295t0.277 0.116q0.393 0 0.429-0.411zM19.286 23.982l0.196-3.768-0.214-10.464q0-0.286-0.232-0.429-0.143-0.089-0.286-0.089t-0.286 0.089q-0.232 0.143-0.232 0.429l-0.018 0.107-0.179 10.339q0 0.018 0.196 4.214v0.018q0 0.179 0.107 0.304 0.161 0.196 0.411 0.196 0.196 0 0.357-0.161 0.161-0.125 0.161-0.357zM0.625 17.911l0.357 2.286-0.357 2.25q-0.036 0.161-0.161 0.161t-0.161-0.161l-0.304-2.25 0.304-2.286q0.036-0.161 0.161-0.161t0.161 0.161zM2.161 16.5l0.464 3.696-0.464 3.625q-0.036 0.161-0.179 0.161-0.161 0-0.161-0.179l-0.411-3.607 0.411-3.696q0-0.161 0.161-0.161 0.143 0 0.179 0.161zM3.804 15.821l0.446 4.375-0.446 4.232q0 0.196-0.196 0.196-0.179 0-0.214-0.196l-0.375-4.232 0.375-4.375q0.036-0.214 0.214-0.214 0.196 0 0.196 0.214zM5.482 15.696l0.411 4.5-0.411 4.357q-0.036 0.232-0.25 0.232-0.232 0-0.232-0.232l-0.375-4.357 0.375-4.5q0-0.232 0.232-0.232 0.214 0 0.25 0.232zM7.161 16.018l0.375 4.179-0.375 4.393q-0.036 0.286-0.286 0.286-0.107 0-0.188-0.080t-0.080-0.205l-0.357-4.393 0.357-4.179q0-0.107 0.080-0.188t0.188-0.080q0.25 0 0.286 0.268zM8.839 13.411l0.375 6.786-0.375 4.393q0 0.125-0.089 0.223t-0.214 0.098q-0.286 0-0.321-0.321l-0.321-4.393 0.321-6.786q0.036-0.321 0.321-0.321 0.125 0 0.214 0.098t0.089 0.223zM10.518 11.875l0.339 8.357-0.339 4.357q0 0.143-0.098 0.241t-0.241 0.098q-0.321 0-0.357-0.339l-0.286-4.357 0.286-8.357q0.036-0.339 0.357-0.339 0.143 0 0.241 0.098t0.098 0.241zM12.268 11.161l0.321 9.036-0.321 4.321q-0.036 0.375-0.393 0.375-0.339 0-0.375-0.375l-0.286-4.321 0.286-9.036q0-0.161 0.116-0.277t0.259-0.116q0.161 0 0.268 0.116t0.125 0.277zM19.268 24.411v0 0zM15.732 11.089l0.268 9.107-0.268 4.268q0 0.179-0.134 0.313t-0.313 0.134-0.304-0.125-0.143-0.321l-0.25-4.268 0.25-9.107q0-0.196 0.134-0.321t0.313-0.125 0.313 0.125 0.134 0.321zM17.5 11.429l0.25 8.786-0.25 4.214q0 0.196-0.143 0.339t-0.339 0.143-0.339-0.143-0.161-0.339l-0.214-4.214 0.214-8.786q0.018-0.214 0.161-0.357t0.339-0.143 0.33 0.143 0.152 0.357zM21.286 20.214l-0.25 4.125q0 0.232-0.161 0.393t-0.393 0.161-0.393-0.161-0.179-0.393l-0.107-2.036-0.107-2.089 0.214-11.357v-0.054q0.036-0.268 0.214-0.429 0.161-0.125 0.357-0.125 0.143 0 0.268 0.089 0.25 0.143 0.286 0.464zM41.143 19.875q0 2.089-1.482 3.563t-3.571 1.473h-14.036q-0.232-0.036-0.393-0.196t-0.161-0.393v-16.054q0-0.411 0.5-0.589 1.518-0.607 3.232-0.607 3.482 0 6.036 2.348t2.857 5.777q0.946-0.393 1.964-0.393 2.089 0 3.571 1.482t1.482 3.589z"></path>
</symbol>
<symbol id="icon-codepen" viewBox="0 0 32 32">
<path class="path1" d="M3.857 20.875l10.768 7.179v-6.411l-5.964-3.982zM2.75 18.304l3.446-2.304-3.446-2.304v4.607zM17.375 28.054l10.768-7.179-4.804-3.214-5.964 3.982v6.411zM16 19.25l4.857-3.25-4.857-3.25-4.857 3.25zM8.661 14.339l5.964-3.982v-6.411l-10.768 7.179zM25.804 16l3.446 2.304v-4.607zM23.339 14.339l4.804-3.214-10.768-7.179v6.411zM32 11.125v9.75q0 0.732-0.607 1.143l-14.625 9.75q-0.375 0.232-0.768 0.232t-0.768-0.232l-14.625-9.75q-0.607-0.411-0.607-1.143v-9.75q0-0.732 0.607-1.143l14.625-9.75q0.375-0.232 0.768-0.232t0.768 0.232l14.625 9.75q0.607 0.411 0.607 1.143z"></path>
</symbol>
<symbol id="icon-twitch" viewBox="0 0 32 32">
<path class="path1" d="M16 7.75v7.75h-2.589v-7.75h2.589zM23.107 7.75v7.75h-2.589v-7.75h2.589zM23.107 21.321l4.518-4.536v-14.196h-21.321v18.732h5.821v3.875l3.875-3.875h7.107zM30.214 0v18.089l-7.75 7.75h-5.821l-3.875 3.875h-3.875v-3.875h-7.107v-20.679l1.946-5.161h26.482z"></path>
</symbol>
<symbol id="icon-meanpath" viewBox="0 0 27 32">
<path class="path1" d="M23.411 15.036v2.036q0 0.429-0.241 0.679t-0.67 0.25h-3.607q-0.429 0-0.679-0.25t-0.25-0.679v-2.036q0-0.429 0.25-0.679t0.679-0.25h3.607q0.429 0 0.67 0.25t0.241 0.679zM14.661 19.143v-4.464q0-0.946-0.58-1.527t-1.527-0.58h-2.375q-1.214 0-1.714 0.929-0.5-0.929-1.714-0.929h-2.321q-0.946 0-1.527 0.58t-0.58 1.527v4.464q0 0.393 0.375 0.393h0.982q0.393 0 0.393-0.393v-4.107q0-0.429 0.241-0.679t0.688-0.25h1.679q0.429 0 0.679 0.25t0.25 0.679v4.107q0 0.393 0.375 0.393h0.964q0.393 0 0.393-0.393v-4.107q0-0.429 0.25-0.679t0.679-0.25h1.732q0.429 0 0.67 0.25t0.241 0.679v4.107q0 0.393 0.393 0.393h0.982q0.375 0 0.375-0.393zM25.179 17.429v-2.75q0-0.946-0.589-1.527t-1.536-0.58h-4.714q-0.946 0-1.536 0.58t-0.589 1.527v7.321q0 0.375 0.393 0.375h0.982q0.375 0 0.375-0.375v-3.214q0.554 0.75 1.679 0.75h3.411q0.946 0 1.536-0.58t0.589-1.527zM27.429 6.429v19.143q0 1.714-1.214 2.929t-2.929 1.214h-19.143q-1.714 0-2.929-1.214t-1.214-2.929v-19.143q0-1.714 1.214-2.929t2.929-1.214h19.143q1.714 0 2.929 1.214t1.214 2.929z"></path>
</symbol>
<symbol id="icon-pinterest-p" viewBox="0 0 23 32">
<path class="path1" d="M0 10.661q0-1.929 0.67-3.634t1.848-2.973 2.714-2.196 3.304-1.393 3.607-0.464q2.821 0 5.25 1.188t3.946 3.455 1.518 5.125q0 1.714-0.339 3.357t-1.071 3.161-1.786 2.67-2.589 1.839-3.375 0.688q-1.214 0-2.411-0.571t-1.714-1.571q-0.179 0.696-0.5 2.009t-0.42 1.696-0.366 1.268-0.464 1.268-0.571 1.116-0.821 1.384-1.107 1.545l-0.25 0.089-0.161-0.179q-0.268-2.804-0.268-3.357 0-1.643 0.384-3.688t1.188-5.134 0.929-3.625q-0.571-1.161-0.571-3.018 0-1.482 0.929-2.786t2.357-1.304q1.089 0 1.696 0.723t0.607 1.83q0 1.179-0.786 3.411t-0.786 3.339q0 1.125 0.804 1.866t1.946 0.741q0.982 0 1.821-0.446t1.402-1.214 1-1.696 0.679-1.973 0.357-1.982 0.116-1.777q0-3.089-1.955-4.813t-5.098-1.723q-3.571 0-5.964 2.313t-2.393 5.866q0 0.786 0.223 1.518t0.482 1.161 0.482 0.813 0.223 0.545q0 0.5-0.268 1.304t-0.661 0.804q-0.036 0-0.304-0.054-0.911-0.268-1.616-1t-1.089-1.688-0.58-1.929-0.196-1.902z"></path>
</symbol>
<symbol id="icon-get-pocket" viewBox="0 0 31 32">
<path class="path1" d="M27.946 2.286q1.161 0 1.964 0.813t0.804 1.973v9.268q0 3.143-1.214 6t-3.259 4.911-4.893 3.259-5.973 1.205q-3.143 0-5.991-1.205t-4.902-3.259-3.268-4.911-1.214-6v-9.268q0-1.143 0.821-1.964t1.964-0.821h25.161zM15.375 21.286q0.839 0 1.464-0.589l7.214-6.929q0.661-0.625 0.661-1.518 0-0.875-0.616-1.491t-1.491-0.616q-0.839 0-1.464 0.589l-5.768 5.536-5.768-5.536q-0.625-0.589-1.446-0.589-0.875 0-1.491 0.616t-0.616 1.491q0 0.911 0.643 1.518l7.232 6.929q0.589 0.589 1.446 0.589z"></path>
</symbol>
<symbol id="icon-vimeo" viewBox="0 0 32 32">
<path class="path1" d="M30.518 9.25q-0.179 4.214-5.929 11.625-5.946 7.696-10.036 7.696-2.536 0-4.286-4.696-0.786-2.857-2.357-8.607-1.286-4.679-2.804-4.679-0.321 0-2.268 1.357l-1.375-1.75q0.429-0.375 1.929-1.723t2.321-2.063q2.786-2.464 4.304-2.607 1.696-0.161 2.732 0.991t1.446 3.634q0.786 5.125 1.179 6.661 0.982 4.446 2.143 4.446 0.911 0 2.75-2.875 1.804-2.875 1.946-4.393 0.232-2.482-1.946-2.482-1.018 0-2.161 0.464 2.143-7.018 8.196-6.821 4.482 0.143 4.214 5.821z"></path>
</symbol>
<symbol id="icon-reddit-alien" viewBox="0 0 32 32">
<path class="path1" d="M32 15.107q0 1.036-0.527 1.884t-1.42 1.295q0.214 0.821 0.214 1.714 0 2.768-1.902 5.125t-5.188 3.723-7.143 1.366-7.134-1.366-5.179-3.723-1.902-5.125q0-0.839 0.196-1.679-0.911-0.446-1.464-1.313t-0.554-1.902q0-1.464 1.036-2.509t2.518-1.045q1.518 0 2.589 1.125 3.893-2.714 9.196-2.893l2.071-9.304q0.054-0.232 0.268-0.375t0.464-0.089l6.589 1.446q0.321-0.661 0.964-1.063t1.411-0.402q1.107 0 1.893 0.777t0.786 1.884-0.786 1.893-1.893 0.786-1.884-0.777-0.777-1.884l-5.964-1.321-1.857 8.429q5.357 0.161 9.268 2.857 1.036-1.089 2.554-1.089 1.482 0 2.518 1.045t1.036 2.509zM7.464 18.661q0 1.107 0.777 1.893t1.884 0.786 1.893-0.786 0.786-1.893-0.786-1.884-1.893-0.777q-1.089 0-1.875 0.786t-0.786 1.875zM21.929 25q0.196-0.196 0.196-0.464t-0.196-0.464q-0.179-0.179-0.446-0.179t-0.464 0.179q-0.732 0.75-2.161 1.107t-2.857 0.357-2.857-0.357-2.161-1.107q-0.196-0.179-0.464-0.179t-0.446 0.179q-0.196 0.179-0.196 0.455t0.196 0.473q0.768 0.768 2.116 1.214t2.188 0.527 1.625 0.080 1.625-0.080 2.188-0.527 2.116-1.214zM21.875 21.339q1.107 0 1.884-0.786t0.777-1.893q0-1.089-0.786-1.875t-1.875-0.786q-1.107 0-1.893 0.777t-0.786 1.884 0.786 1.893 1.893 0.786z"></path>
</symbol>
<symbol id="icon-hashtag" viewBox="0 0 32 32">
<path class="path1" d="M17.696 18.286l1.143-4.571h-4.536l-1.143 4.571h4.536zM31.411 9.286l-1 4q-0.125 0.429-0.554 0.429h-5.839l-1.143 4.571h5.554q0.268 0 0.446 0.214 0.179 0.25 0.107 0.5l-1 4q-0.089 0.429-0.554 0.429h-5.839l-1.446 5.857q-0.125 0.429-0.554 0.429h-4q-0.286 0-0.464-0.214-0.161-0.214-0.107-0.5l1.393-5.571h-4.536l-1.446 5.857q-0.125 0.429-0.554 0.429h-4.018q-0.268 0-0.446-0.214-0.161-0.214-0.107-0.5l1.393-5.571h-5.554q-0.268 0-0.446-0.214-0.161-0.214-0.107-0.5l1-4q0.125-0.429 0.554-0.429h5.839l1.143-4.571h-5.554q-0.268 0-0.446-0.214-0.179-0.25-0.107-0.5l1-4q0.089-0.429 0.554-0.429h5.839l1.446-5.857q0.125-0.429 0.571-0.429h4q0.268 0 0.446 0.214 0.161 0.214 0.107 0.5l-1.393 5.571h4.536l1.446-5.857q0.125-0.429 0.571-0.429h4q0.268 0 0.446 0.214 0.161 0.214 0.107 0.5l-1.393 5.571h5.554q0.268 0 0.446 0.214 0.161 0.214 0.107 0.5z"></path>
</symbol>
<symbol id="icon-chain" viewBox="0 0 30 32">
<path class="path1" d="M26 21.714q0-0.714-0.5-1.214l-3.714-3.714q-0.5-0.5-1.214-0.5-0.75 0-1.286 0.571 0.054 0.054 0.339 0.33t0.384 0.384 0.268 0.339 0.232 0.455 0.063 0.491q0 0.714-0.5 1.214t-1.214 0.5q-0.268 0-0.491-0.063t-0.455-0.232-0.339-0.268-0.384-0.384-0.33-0.339q-0.589 0.554-0.589 1.304 0 0.714 0.5 1.214l3.679 3.696q0.482 0.482 1.214 0.482 0.714 0 1.214-0.464l2.625-2.607q0.5-0.5 0.5-1.196zM13.446 9.125q0-0.714-0.5-1.214l-3.679-3.696q-0.5-0.5-1.214-0.5-0.696 0-1.214 0.482l-2.625 2.607q-0.5 0.5-0.5 1.196 0 0.714 0.5 1.214l3.714 3.714q0.482 0.482 1.214 0.482 0.75 0 1.286-0.554-0.054-0.054-0.339-0.33t-0.384-0.384-0.268-0.339-0.232-0.455-0.063-0.491q0-0.714 0.5-1.214t1.214-0.5q0.268 0 0.491 0.063t0.455 0.232 0.339 0.268 0.384 0.384 0.33 0.339q0.589-0.554 0.589-1.304zM29.429 21.714q0 2.143-1.518 3.625l-2.625 2.607q-1.482 1.482-3.625 1.482-2.161 0-3.643-1.518l-3.679-3.696q-1.482-1.482-1.482-3.625 0-2.196 1.571-3.732l-1.571-1.571q-1.536 1.571-3.714 1.571-2.143 0-3.643-1.5l-3.714-3.714q-1.5-1.5-1.5-3.643t1.518-3.625l2.625-2.607q1.482-1.482 3.625-1.482 2.161 0 3.643 1.518l3.679 3.696q1.482 1.482 1.482 3.625 0 2.196-1.571 3.732l1.571 1.571q1.536-1.571 3.714-1.571 2.143 0 3.643 1.5l3.714 3.714q1.5 1.5 1.5 3.643z"></path>
</symbol>
<symbol id="icon-thumb-tack" viewBox="0 0 21 32">
<path class="path1" d="M8.571 15.429v-8q0-0.25-0.161-0.411t-0.411-0.161-0.411 0.161-0.161 0.411v8q0 0.25 0.161 0.411t0.411 0.161 0.411-0.161 0.161-0.411zM20.571 21.714q0 0.464-0.339 0.804t-0.804 0.339h-7.661l-0.911 8.625q-0.036 0.214-0.188 0.366t-0.366 0.152h-0.018q-0.482 0-0.571-0.482l-1.357-8.661h-7.214q-0.464 0-0.804-0.339t-0.339-0.804q0-2.196 1.402-3.955t3.17-1.759v-9.143q-0.929 0-1.607-0.679t-0.679-1.607 0.679-1.607 1.607-0.679h11.429q0.929 0 1.607 0.679t0.679 1.607-0.679 1.607-1.607 0.679v9.143q1.768 0 3.17 1.759t1.402 3.955z"></path>
</symbol>
<symbol id="icon-arrow-left" viewBox="0 0 43 32">
<path class="path1" d="M42.311 14.044c-0.178-0.178-0.533-0.356-0.711-0.356h-33.778l10.311-10.489c0.178-0.178 0.356-0.533 0.356-0.711 0-0.356-0.178-0.533-0.356-0.711l-1.6-1.422c-0.356-0.178-0.533-0.356-0.889-0.356s-0.533 0.178-0.711 0.356l-14.578 14.933c-0.178 0.178-0.356 0.533-0.356 0.711s0.178 0.533 0.356 0.711l14.756 14.933c0 0.178 0.356 0.356 0.533 0.356s0.533-0.178 0.711-0.356l1.6-1.6c0.178-0.178 0.356-0.533 0.356-0.711s-0.178-0.533-0.356-0.711l-10.311-10.489h33.778c0.178 0 0.533-0.178 0.711-0.356 0.356-0.178 0.533-0.356 0.533-0.711v-2.133c0-0.356-0.178-0.711-0.356-0.889z"></path>
</symbol>
<symbol id="icon-arrow-right" viewBox="0 0 43 32">
<path class="path1" d="M0.356 17.956c0.178 0.178 0.533 0.356 0.711 0.356h33.778l-10.311 10.489c-0.178 0.178-0.356 0.533-0.356 0.711 0 0.356 0.178 0.533 0.356 0.711l1.6 1.6c0.178 0.178 0.533 0.356 0.711 0.356s0.533-0.178 0.711-0.356l14.756-14.933c0.178-0.356 0.356-0.711 0.356-0.889s-0.178-0.533-0.356-0.711l-14.756-14.933c0-0.178-0.356-0.356-0.533-0.356s-0.533 0.178-0.711 0.356l-1.6 1.6c-0.178 0.178-0.356 0.533-0.356 0.711s0.178 0.533 0.356 0.711l10.311 10.489h-33.778c-0.178 0-0.533 0.178-0.711 0.356-0.356 0.178-0.533 0.356-0.533 0.711v2.311c0 0.178 0.178 0.533 0.356 0.711z"></path>
</symbol>
<symbol id="icon-play" viewBox="0 0 22 28">
<path d="M21.625 14.484l-20.75 11.531c-0.484 0.266-0.875 0.031-0.875-0.516v-23c0-0.547 0.391-0.781 0.875-0.516l20.75 11.531c0.484 0.266 0.484 0.703 0 0.969z"></path>
</symbol>
<symbol id="icon-pause" viewBox="0 0 24 28">
<path d="M24 3v22c0 0.547-0.453 1-1 1h-8c-0.547 0-1-0.453-1-1v-22c0-0.547 0.453-1 1-1h8c0.547 0 1 0.453 1 1zM10 3v22c0 0.547-0.453 1-1 1h-8c-0.547 0-1-0.453-1-1v-22c0-0.547 0.453-1 1-1h8c0.547 0 1 0.453 1 1z"></path>
</symbol>
</defs>
</svg>
